<svg width="100" height="100" viewBox="0 0 100 100" fill="none" xmlns="http://www.w3.org/2000/svg">
<path d="M35.6 22.3H38.6V19.3H35.6V22.3ZM35.6 77.5V80.5H38.6V77.5H35.6ZM20.64 77.5H17.64V80.5H20.64V77.5ZM20.72 37.58L23.7163 37.7298L23.7166 37.7227L20.72 37.58ZM21.2 34.3L24.1104 35.0276L25.2895 30.3115L20.5454 31.3723L21.2 34.3ZM8.32 37.18L5.37082 37.7298L5.94063 40.7861L8.97464 40.1077L8.32 37.18ZM6.56 27.74L5.4788 24.9416L3.15403 25.8398L3.61082 28.2898L6.56 27.74ZM20.64 22.3V19.3H20.0806L19.5588 19.5016L20.64 22.3ZM32.6 22.3V77.5H38.6V22.3H32.6ZM35.6 74.5H20.64V80.5H35.6V74.5ZM23.64 77.5V40.86H17.64V77.5H23.64ZM23.64 40.86C23.64 39.7876 23.6655 38.7442 23.7163 37.7298L17.7237 37.4302C17.6678 38.5491 17.64 39.6924 17.64 40.86H23.64ZM23.7166 37.7227C23.7607 36.7961 23.8926 35.8988 24.1104 35.0276L18.2896 33.5724C17.9741 34.8345 17.7859 36.1239 17.7234 37.4373L23.7166 37.7227ZM20.5454 31.3723L7.66536 34.2523L8.97464 40.1077L21.8546 37.2277L20.5454 31.3723ZM11.2692 36.6302L9.50918 27.1901L3.61082 28.2898L5.37082 37.7298L11.2692 36.6302ZM7.6412 30.5384L21.7212 25.0984L19.5588 19.5016L5.4788 24.9416L7.6412 30.5384ZM20.64 25.3H35.6V19.3H20.64V25.3ZM81.2138 23.9L79.7713 26.5304L79.7877 26.5394L79.8042 26.5482L81.2138 23.9ZM88.3338 32.86L85.4949 33.8302L85.4988 33.8413L88.3338 32.86ZM88.3338 67.02L91.1687 68.0013L91.1725 67.9902L88.3338 67.02ZM81.2138 75.98L82.6233 78.6282L82.6398 78.6194L82.6563 78.6104L81.2138 75.98ZM54.5738 75.98L53.1313 78.6104L53.1477 78.6194L53.1642 78.6282L54.5738 75.98ZM47.4538 67.02L44.6041 67.9579L44.6113 67.9796L44.6188 68.0013L47.4538 67.02ZM47.4538 32.86L44.615 31.8898L44.6113 31.9005L44.6077 31.9113L47.4538 32.86ZM54.5738 23.9L55.9833 26.5482L55.9998 26.5394L56.0162 26.5304L54.5738 23.9ZM64.0138 33.26L65.2322 36.0014L65.2653 35.9867L65.298 35.9712L64.0138 33.26ZM61.6938 35.74L58.9873 34.4456L58.9747 34.472L58.9627 34.4986L61.6938 35.74ZM60.5738 40.94L57.5866 40.6621L57.5866 40.6621L60.5738 40.94ZM60.5738 58.86L57.5866 59.1379L57.5866 59.1379L60.5738 58.86ZM61.6938 64.14L58.9425 65.3362L58.9746 65.4098L59.0105 65.4816L61.6938 64.14ZM64.0138 66.62L62.6721 69.3033L62.7595 69.347L62.8496 69.3849L64.0138 66.62ZM71.6138 66.62L72.7779 69.3849L72.8386 69.3594L72.898 69.3312L71.6138 66.62ZM74.0138 64.14L76.697 65.4816L76.7088 65.4581L76.7202 65.4344L74.0138 64.14ZM75.2138 58.86L72.2338 58.5135L72.2298 58.5478L72.2266 58.5821L75.2138 58.86ZM75.2138 40.94L72.2266 41.2179L72.2298 41.2522L72.2338 41.2865L75.2138 40.94ZM74.0138 35.74L71.3073 37.0344L71.3187 37.0581L71.3305 37.0816L74.0138 35.74ZM71.6138 33.26L70.3295 35.9712L70.3889 35.9994L70.4496 36.0249L71.6138 33.26ZM67.8538 24.18C73.1758 24.18 77.0699 25.049 79.7713 26.5304L82.6563 21.2696C78.7443 19.1243 73.7317 18.18 67.8538 18.18V24.18ZM79.8042 26.5482C82.3152 27.8847 84.2518 30.1929 85.495 33.8302L91.1725 31.8898C89.5357 27.1005 86.7257 23.4353 82.6233 21.2518L79.8042 26.5482ZM85.4988 33.8413C86.7822 37.5491 87.4938 42.8498 87.4938 49.9H93.4938C93.4938 42.5502 92.7653 36.4909 91.1687 31.8787L85.4988 33.8413ZM87.4938 49.9C87.4938 56.9474 86.7829 62.2813 85.495 66.0498L91.1725 67.9902C92.7646 63.332 93.4938 57.2526 93.4938 49.9H87.4938ZM85.4988 66.0387C84.259 69.6204 82.3177 71.9531 79.7713 73.3496L82.6563 78.6104C86.7231 76.3802 89.5285 72.7396 91.1687 68.0013L85.4988 66.0387ZM79.8042 73.3318C77.0936 74.7745 73.1862 75.62 67.8538 75.62V81.62C73.7213 81.62 78.7206 80.7055 82.6233 78.6282L79.8042 73.3318ZM67.8538 75.62C62.5802 75.62 58.6973 74.7763 55.9833 73.3318L53.1642 78.6282C57.0636 80.7037 62.0339 81.62 67.8538 81.62V75.62ZM56.0162 73.3496C53.4698 71.9531 51.5285 69.6204 50.2887 66.0387L44.6188 68.0013C46.259 72.7396 49.0644 76.3802 53.1313 78.6104L56.0162 73.3496ZM50.3034 66.0821C49.0588 62.3005 48.3738 56.9539 48.3738 49.9H42.3738C42.3738 57.2461 43.0754 63.3128 44.6041 67.9579L50.3034 66.0821ZM48.3738 49.9C48.3738 42.8434 49.0595 37.5297 50.2998 33.8087L44.6077 31.9113C43.0747 36.5103 42.3738 42.5566 42.3738 49.9H48.3738ZM50.2925 33.8302C51.5357 30.1929 53.4723 27.8847 55.9833 26.5482L53.1642 21.2518C49.0618 23.4353 46.2518 27.1005 44.615 31.8898L50.2925 33.8302ZM56.0162 26.5304C58.7211 25.0471 62.5908 24.18 67.8538 24.18V18.18C62.0233 18.18 57.0398 19.1262 53.1313 21.2696L56.0162 26.5304ZM67.7738 29.54C65.9767 29.54 64.2543 29.8265 62.7295 30.5488L65.298 35.9712C65.7998 35.7335 66.5842 35.54 67.7738 35.54V29.54ZM62.7953 30.5186C61.0107 31.3117 59.7896 32.7683 58.9873 34.4456L64.4002 37.0344C64.7713 36.2584 65.0968 36.0616 65.2322 36.0014L62.7953 30.5186ZM58.9627 34.4986C58.2223 36.1273 57.8106 38.2546 57.5866 40.6621L63.5609 41.2179C63.7636 39.0387 64.0985 37.6993 64.4249 36.9814L58.9627 34.4986ZM57.5866 40.6621C57.3612 43.0855 57.2538 46.1749 57.2538 49.9H63.2538C63.2538 46.2651 63.3596 43.3811 63.5609 41.2179L57.5866 40.6621ZM57.2538 49.9C57.2538 53.6251 57.3612 56.7145 57.5866 59.1379L63.5609 58.5821C63.3596 56.4188 63.2538 53.5349 63.2538 49.9H57.2538ZM57.5866 59.1379C57.8114 61.5542 58.223 63.6812 58.9425 65.3362L64.445 62.9438C64.0979 62.1455 63.7628 60.7525 63.5609 58.5821L57.5866 59.1379ZM59.0105 65.4816C59.8215 67.1036 61.0122 68.4733 62.6721 69.3033L65.3554 63.9367C65.0953 63.8067 64.7394 63.523 64.377 62.7984L59.0105 65.4816ZM62.8496 69.3849C64.338 70.0116 66.0152 70.26 67.7738 70.26V64.26C66.5457 64.26 65.7162 64.0817 65.1779 63.8551L62.8496 69.3849ZM67.7738 70.26C69.5693 70.26 71.2786 70.0162 72.7779 69.3849L70.4496 63.8551C69.9222 64.0772 69.0715 64.26 67.7738 64.26V70.26ZM72.898 69.3312C74.617 68.5169 75.8634 67.1488 76.697 65.4816L71.3305 62.7984C70.9907 63.4779 70.6371 63.7631 70.3295 63.9088L72.898 69.3312ZM76.7202 65.4344C77.5298 63.7414 77.9742 61.5742 78.2009 59.1379L72.2266 58.5821C72.0266 60.7325 71.671 62.0853 71.3073 62.8456L76.7202 65.4344ZM78.1937 59.2065C78.4792 56.7514 78.6138 53.6366 78.6138 49.9H72.6138C72.6138 53.5234 72.4817 56.3819 72.2338 58.5135L78.1937 59.2065ZM78.6138 49.9C78.6138 46.1634 78.4792 43.0486 78.1937 40.5935L72.2338 41.2865C72.4817 43.4181 72.6138 46.2766 72.6138 49.9H78.6138ZM78.2009 40.6621C77.9751 38.2352 77.5307 36.0658 76.697 34.3984L71.3305 37.0816C71.6701 37.7609 72.0257 39.0582 72.2266 41.2179L78.2009 40.6621ZM76.7202 34.4456C75.8948 32.7198 74.618 31.2699 72.7779 30.4951L70.4496 36.0249C70.6362 36.1035 70.9594 36.3068 71.3073 37.0344L76.7202 34.4456ZM72.898 30.5488C71.3611 29.8208 69.606 29.54 67.7738 29.54V35.54C69.0348 35.54 69.8398 35.7392 70.3295 35.9712L72.898 30.5488Z" fill="currentColor"/>
</svg>
