<svg width="109" height="108" viewBox="0 0 109 108" fill="none" xmlns="http://www.w3.org/2000/svg">
<path d="M3.52344 52.8086C3.52344 24.4974 26.5339 1.54663 54.9188 1.54663C83.3032 1.54663 106.314 24.4974 106.314 52.8086C106.314 81.1197 83.3032 104.071 54.9188 104.071C26.5339 104.071 3.52344 81.1197 3.52344 52.8086Z" fill="white"/>
<path d="M18.7116 51.3229L14.1813 48.7772L10.7985 52.1936L11.7161 47.3956L6.85308 44.6922L12.3781 43.9337L13.2899 39.166L15.1743 43.5844L20.3318 42.8503L16.4285 46.5139L18.7116 51.3229Z" fill="#FA7436"/>
<path d="M20.2658 26.9945L21.123 27.579L19.5662 29.8504C19.3854 30.1141 19.314 30.3462 19.3517 30.5467C19.3868 30.7329 19.5348 30.9462 19.7956 31.1864C20.1418 31.4848 20.4906 31.7976 20.8421 32.1247C21.1995 32.4432 21.5382 32.7616 21.8583 33.0797C22.1784 33.3978 22.4456 33.711 22.6598 34.0194C22.8883 34.325 23.0438 34.6369 23.126 34.9551C23.2083 35.2734 23.2131 35.595 23.1405 35.92C23.0738 36.2365 22.9281 36.5678 22.7034 36.9139L21.7931 36.4617C21.8908 36.1913 21.9479 35.9619 21.9644 35.7734C21.9868 35.5765 21.9688 35.4019 21.9104 35.2497C21.8578 35.0891 21.7794 34.9295 21.6752 34.7711C21.523 34.555 21.3351 34.327 21.1115 34.0871C20.8879 33.8473 20.6457 33.6073 20.3849 33.367C20.124 33.1267 19.8659 32.9008 19.6104 32.6892C19.3523 32.4632 19.1211 32.2619 18.9168 32.0852C18.48 31.6999 18.2225 31.2996 18.1442 30.8843C18.0718 30.4604 18.2134 29.989 18.5691 29.4701L20.2658 26.9945ZM20.3795 26.8286L26.6101 31.0769L25.8667 32.1616L19.6361 27.9133L20.3795 26.8286Z" fill="black"/>
<path d="M25.1417 21.6297C25.9796 20.8638 26.7248 20.4623 27.3772 20.425C28.0373 20.3808 28.6468 20.6553 29.2059 21.2486C29.6596 21.7424 29.909 22.2273 29.954 22.7034C29.9996 23.1649 29.7901 23.608 29.3254 24.0326L26.0691 27.009L25.378 26.2568L28.383 23.5102C28.6268 23.2875 28.7099 23.0577 28.6325 22.8209C28.5558 22.5696 28.4194 22.3448 28.2233 22.1467C27.8952 21.7896 27.5585 21.6291 27.2133 21.6651C26.868 21.7011 26.444 21.9489 25.9413 22.4084C25.5376 22.7774 25.2735 23.1306 25.149 23.468C25.0252 23.7908 25.0499 24.1456 25.2231 24.5324C25.397 24.9047 25.7247 25.3529 26.2063 25.8771C26.7508 26.4697 27.2233 26.8696 27.6237 27.0766C28.0318 27.2767 28.4177 27.3154 28.7813 27.1926C29.145 27.0699 29.5402 26.8136 29.9667 26.4237C30.2714 26.1452 30.5885 25.8344 30.9179 25.4914C31.248 25.1338 31.5365 24.8072 31.7835 24.5116L32.4717 25.0776C32.3669 25.2992 32.206 25.5511 31.9889 25.8334C31.7718 26.1157 31.5366 26.3935 31.2833 26.667C31.0377 26.9334 30.8082 27.1642 30.5949 27.3591C29.9627 27.937 29.3613 28.3119 28.7907 28.484C28.2207 28.6416 27.6527 28.5877 27.0866 28.3223C26.5135 28.0494 25.9024 27.5597 25.2532 26.8531C24.5831 26.1238 24.1437 25.4701 23.935 24.8921C23.7269 24.2996 23.7292 23.7453 23.9419 23.2295C24.1476 22.706 24.5476 22.1727 25.1417 21.6297Z" fill="black"/>
<path d="M32.9745 16.1618L36.8132 22.6432L35.679 23.3114L31.8403 16.8301L32.9745 16.1618ZM35.3229 14.7781L35.8747 15.7097L30.0303 19.1533L29.4785 18.2217L35.3229 14.7781Z" fill="black"/>
<path d="M43.8522 11.7498C44.4959 11.5992 45.1459 11.4524 45.8021 11.3094C46.4683 11.1641 47.1102 11.0509 47.7279 10.9699L47.895 11.8834L44.6209 12.6496C44.3091 12.7225 44.0993 12.8457 43.9915 13.0191C43.8838 13.1925 43.8676 13.4398 43.9431 13.7608L45.221 19.1934L43.9536 19.49L42.5979 13.7263C42.4752 13.2046 42.5177 12.7765 42.7256 12.4421C42.9435 12.1053 43.3191 11.8746 43.8522 11.7498Z" fill="black"/>
<path d="M53.9193 10.2864C54.4771 10.2735 54.9489 10.3399 55.3346 10.4857C55.7201 10.6211 56.0151 10.8616 56.2195 11.2074C56.4239 11.5531 56.5331 12.0299 56.5472 12.6377L56.6703 17.9382L55.6323 17.9622L55.3928 16.3288L55.3114 16.1606L55.2303 12.6681C55.2092 12.2048 55.0931 11.8776 54.882 11.6867C54.6706 11.4854 54.2654 11.3917 53.6663 11.4055C53.2635 11.4148 52.763 11.447 52.1649 11.502C51.5771 11.5569 50.9945 11.6167 50.4173 11.6816L50.2708 10.7109C50.6205 10.6409 51.0065 10.5753 51.4288 10.514C51.8511 10.4527 52.2788 10.4016 52.7119 10.3607C53.145 10.3198 53.5475 10.295 53.9193 10.2864ZM55.9429 13.3165L55.9504 14.3059L52.3563 14.4044C51.995 14.4231 51.739 14.5269 51.5884 14.7159C51.4479 14.8944 51.3813 15.1433 51.3887 15.4627L51.3999 15.9417C51.4089 16.3332 51.5086 16.6195 51.6988 16.8007C51.8992 16.9713 52.2007 17.0519 52.6036 17.0426C52.8928 17.0359 53.2169 16.9769 53.5761 16.8655C53.9453 16.7436 54.3132 16.565 54.6798 16.3298C55.0463 16.0946 55.3805 15.7982 55.6822 15.4408L55.7048 16.4144C55.6049 16.561 55.4487 16.7347 55.2364 16.9354C55.0341 17.1256 54.7854 17.3169 54.4901 17.5093C54.205 17.6911 53.8831 17.848 53.5244 17.98C53.1655 18.1016 52.7795 18.1673 52.3664 18.1768C51.9222 18.1871 51.5279 18.1189 51.1835 17.9722C50.8388 17.8152 50.5699 17.5844 50.3768 17.2796C50.1835 16.9645 50.0815 16.5803 50.071 16.127L50.052 15.308C50.0383 14.7208 50.2086 14.2633 50.5627 13.9356C50.9269 13.5973 51.4395 13.4206 52.1005 13.4053L55.9429 13.3165Z" fill="black"/>
<path d="M64.7027 11.4648C65.6118 11.6594 66.1919 12.1314 66.4428 12.8807C66.6958 13.6199 66.6847 14.6293 66.4094 15.9089C66.2057 16.856 65.9421 17.5901 65.6186 18.1111C65.2974 18.622 64.9036 18.954 64.4374 19.1072C63.9712 19.2604 63.425 19.2699 62.7987 19.1359C62.3138 19.0321 61.848 18.8639 61.4014 18.6313C60.9548 18.3987 60.5436 18.0999 60.1678 17.7349L60.4094 16.9803C60.856 17.2129 61.2463 17.4124 61.5803 17.5788C61.9267 17.7372 62.3019 17.8597 62.7059 17.9461C63.1403 18.0391 63.5 18.0371 63.7851 17.94C64.0803 17.8451 64.3307 17.6141 64.5365 17.2471C64.7422 16.8801 64.9221 16.3389 65.076 15.6235C65.2256 14.9283 65.2881 14.3673 65.2637 13.9405C65.2494 13.5159 65.1395 13.192 64.9339 12.9688C64.7406 12.7377 64.4469 12.58 64.0529 12.4957C63.6489 12.4092 63.2293 12.4195 62.7941 12.5266C62.3589 12.6337 61.8364 12.8275 61.2266 13.1081L61.2756 12.2174C61.6112 11.9836 61.9735 11.7976 62.3625 11.6596C62.7515 11.5215 63.1448 11.437 63.5424 11.4062C63.9522 11.3675 64.339 11.387 64.7027 11.4648ZM61.4968 10.9684L61.3199 12.5273L61.3534 12.7399L60.3389 17.4553L60.2392 17.6237C60.2088 17.9123 60.1705 18.1887 60.1243 18.4528C60.078 18.7169 60.0184 18.994 59.9454 19.2841L59.4869 21.415L58.2141 21.1426L60.4512 10.7446L61.4968 10.9684Z" fill="black"/>
<path d="M73.5313 14.6195C74.0358 14.8571 74.4278 15.1271 74.7073 15.4297C74.9913 15.723 75.147 16.0698 75.1745 16.4702C75.202 16.8706 75.0857 17.3457 74.8254 17.8955L72.5558 22.6899L71.6169 22.2477L72.1361 20.6803L72.1388 20.4935L73.6342 17.3346C73.8234 16.9108 73.8664 16.5664 73.7634 16.3014C73.6648 16.027 73.3445 15.7623 72.8026 15.5071C72.4383 15.3355 71.9763 15.1407 71.4168 14.9228C70.8666 14.7093 70.3189 14.5026 69.7737 14.3028L70.0784 13.3694C70.4225 13.4631 70.7971 13.5769 71.2023 13.7107C71.6074 13.8445 72.0127 13.9898 72.4184 14.1466C72.824 14.3035 73.195 14.4611 73.5313 14.6195ZM73.9803 18.2326L73.5428 19.1206L70.2849 17.6034C69.9535 17.4587 69.6781 17.4373 69.4585 17.539C69.2527 17.6358 69.0815 17.8287 68.9447 18.1175L68.7396 18.5509C68.572 18.905 68.5325 19.2055 68.6213 19.4524C68.7238 19.6944 68.9573 19.9012 69.3216 20.0728C69.5832 20.196 69.8996 20.288 70.2707 20.3488C70.6556 20.4047 71.0647 20.4093 71.4981 20.3627C71.9314 20.3161 72.3633 20.2004 72.7935 20.0155L72.3767 20.8961C72.2215 20.9826 72.0039 21.0682 71.7239 21.1528C71.4576 21.2326 71.1493 21.2925 70.799 21.3326C70.4624 21.3679 70.1041 21.3644 69.7242 21.3222C69.3487 21.2707 68.9741 21.157 68.6004 20.981C68.1986 20.7918 67.8767 20.5547 67.6345 20.2697C67.3968 19.9755 67.26 19.6489 67.2242 19.2902C67.1928 18.9221 67.2741 18.5331 67.4682 18.1231L67.8189 17.3822C68.0703 16.8511 68.4279 16.5181 68.8917 16.3832C69.3692 16.2434 69.9069 16.3143 70.5048 16.5959L73.9803 18.2326Z" fill="black"/>
<path d="M80.0006 18.644L75.2981 24.5319L74.2799 23.7229L78.9824 17.835L80.0006 18.644ZM81.3203 23.5659L80.6926 24.3518L77.4077 21.7417L78.0353 20.9559L81.3203 23.5659ZM84.122 21.9185L79.4195 27.8065L78.4013 26.9975L83.1038 21.1095L84.122 21.9185Z" fill="black"/>
<path d="M88.717 27.0645L82.8482 31.7976L82.0199 30.7759L87.8888 26.0428L88.717 27.0645ZM90.432 29.18L89.5885 29.8603L85.3205 24.5956L86.1641 23.9153L90.432 29.18Z" fill="black"/>
<path d="M94.939 37.5437L88.1751 40.8836L87.6457 39.8169L92.1318 37.6018C92.2799 37.5286 92.4257 37.4624 92.5692 37.4031C92.7219 37.3391 92.8839 37.2706 93.0552 37.1976L93.0414 37.1699C92.8843 37.1785 92.7087 37.1732 92.5147 37.154C92.3346 37.1394 92.1683 37.118 92.016 37.0898L85.7135 35.9243L85.2322 34.9546L91.9961 31.6147L92.5255 32.6814L88.0394 34.8966C87.8913 34.9697 87.7409 35.0382 87.5881 35.1022C87.4492 35.1707 87.2919 35.2369 87.116 35.3008L87.1298 35.3285C87.3054 35.3338 87.4832 35.3437 87.6633 35.3582C87.8435 35.3728 88.0051 35.3965 88.1482 35.4293L94.4645 36.5879L94.939 37.5437Z" fill="black"/>
<path d="M97.6442 47.5566L90.2771 49.1921L90.0179 48.0303L94.9041 46.9456C95.0654 46.9098 95.2229 46.8801 95.3764 46.8566C95.54 46.8308 95.7137 46.8028 95.8974 46.7726L95.8907 46.7424C95.736 46.7134 95.5668 46.6665 95.383 46.6017C95.2115 46.5448 95.0552 46.4845 94.914 46.4208L89.0717 43.7906L88.836 42.7344L96.2031 41.0989L96.4624 42.2607L91.5762 43.3454C91.4149 43.3812 91.2524 43.412 91.0888 43.4378C90.9375 43.4714 90.7688 43.4983 90.5828 43.5184L90.5896 43.5486C90.7588 43.5955 90.9292 43.6474 91.1006 43.7044C91.2721 43.7613 91.4234 43.8227 91.5545 43.8886L97.4119 46.5156L97.6442 47.5566Z" fill="black"/>
<path d="M90.3183 56.439L94.8388 59.0018L98.2346 55.5984L97.2987 60.3929L102.151 63.1147L96.6234 63.8522L95.6934 68.6164L93.8258 64.1908L88.6656 64.9052L92.5829 61.2566L90.3183 56.439Z" fill="#FA7436"/>
<path d="M88.6233 80.8182L87.7683 80.2306L89.3334 77.9649C89.5151 77.7019 89.5874 77.47 89.5504 77.2694C89.516 77.0831 89.3688 76.8693 89.1089 76.6281C88.7638 76.3284 88.4161 76.0144 88.0658 75.686C87.7096 75.3662 87.3721 75.0466 87.0531 74.7273C86.7342 74.408 86.4682 74.0938 86.2551 73.7847C86.0277 73.4782 85.8734 73.1657 85.7923 72.8472C85.7112 72.5287 85.7076 72.2071 85.7813 71.8823C85.8492 71.5661 85.9962 71.2353 86.2221 70.89L87.1308 71.3455C87.0321 71.6156 86.9741 71.8448 86.9569 72.0332C86.9338 72.2301 86.9512 72.4047 87.009 72.5571C87.061 72.7179 87.1388 72.8778 87.2424 73.0366C87.3938 73.2533 87.5809 73.4819 87.8036 73.7226C88.0263 73.9632 88.2677 74.2041 88.5276 74.4454C88.7876 74.6866 89.0449 74.9135 89.2996 75.126C89.5569 75.3529 89.7873 75.5551 89.991 75.7325C90.4264 76.1194 90.6824 76.5206 90.7592 76.9362C90.83 77.3604 90.6867 77.8312 90.3291 78.3489L88.6233 80.8182ZM88.509 80.9837L82.294 76.7127L83.0414 75.6308L89.2564 79.9018L88.509 80.9837Z" fill="black"/>
<path d="M83.7092 86.1497C82.8685 86.9125 82.1219 87.3113 81.4693 87.3462C80.8091 87.388 80.2005 87.1113 79.6436 86.516C79.1917 86.0205 78.9441 85.5347 78.9009 85.0585C78.8569 84.5969 79.0681 84.1545 79.5343 83.7315L82.8014 80.767L83.4897 81.5217L80.4748 84.2573C80.2302 84.4792 80.1462 84.7087 80.2227 84.9458C80.2986 85.1974 80.4342 85.4226 80.6295 85.6215C80.9563 85.9797 81.2924 86.1415 81.6378 86.1067C81.9832 86.0719 82.4081 85.8257 82.9125 85.368C83.3175 85.0005 83.5829 84.6483 83.7086 84.3113C83.8336 83.989 83.8102 83.6341 83.6384 83.2466C83.4659 82.8737 83.1398 82.4243 82.66 81.8984C82.1177 81.3038 81.6468 80.9023 81.2471 80.6937C80.8397 80.4922 80.454 80.4521 80.0899 80.5735C79.7257 80.695 79.3297 80.9498 78.9017 81.3382C78.596 81.6155 78.2778 81.9252 77.9471 82.267C77.6157 82.6234 77.326 82.949 77.078 83.2437L76.3918 82.6751C76.4974 82.454 76.6593 82.2026 76.8774 81.9211C77.0955 81.6396 77.3317 81.3626 77.586 81.0901C77.8326 80.8245 78.0629 80.5947 78.2769 80.4005C78.9112 79.8249 79.514 79.4521 80.0852 79.2821C80.6558 79.1266 81.2236 79.1826 81.7887 79.45C82.3608 79.725 82.9701 80.2169 83.6167 80.9258C84.2842 81.6576 84.7212 82.3129 84.9278 82.8916C85.1337 83.4849 85.1294 84.0391 84.9148 84.5542C84.7072 85.077 84.3053 85.6088 83.7092 86.1497Z" fill="black"/>
<path d="M75.7331 91.6332L71.9423 85.1239L73.0814 84.4639L76.8722 90.9733L75.7331 91.6332ZM73.3745 92.9997L72.8296 92.064L78.6993 88.6635L79.2441 89.5991L73.3745 92.9997Z" fill="black"/>
<path d="M64.9316 95.9181C64.2872 96.0663 63.6367 96.2106 62.98 96.3511C62.3132 96.4938 61.6708 96.6046 61.0528 96.6832L60.8892 95.7691L64.1662 95.0154C64.4783 94.9436 64.6886 94.8212 64.797 94.6482C64.9055 94.4752 64.9225 94.2281 64.8483 93.9068L63.5912 88.4693L64.8597 88.1775L66.1934 93.9464C66.3141 94.4685 66.2699 94.8964 66.0607 95.2301C65.8415 95.566 65.4651 95.7954 64.9316 95.9181Z" fill="black"/>
<path d="M54.6543 97.3233C54.0964 97.3319 53.6252 97.2619 53.2406 97.1132C52.8561 96.9748 52.563 96.732 52.3613 96.3847C52.1596 96.0374 52.0541 95.5598 52.0447 94.9518L51.9626 89.6506L53.0008 89.6346L53.2276 91.2698L53.3077 91.4386L53.3618 94.9316C53.3793 95.3951 53.4929 95.7231 53.7025 95.9157C53.9123 96.1186 54.3168 96.2154 54.916 96.2062C55.3189 96.2 55.8196 96.1717 56.4181 96.1212C57.0063 96.0709 57.5893 96.0156 58.167 95.9552L58.306 96.927C57.9558 96.9942 57.5692 97.0568 57.1465 97.1149C56.7237 97.1729 56.2957 97.2207 55.8623 97.2583C55.4288 97.2959 55.0262 97.3176 54.6543 97.3233ZM52.6542 94.2777L52.6544 93.2883L56.2492 93.2175C56.6106 93.2016 56.8673 93.0997 57.0194 92.9119C57.1613 92.7345 57.2298 92.4861 57.2249 92.1667L57.2175 91.6876C57.2114 91.296 57.114 91.0089 56.9251 90.8263C56.7261 90.6542 56.4252 90.5712 56.0223 90.5774C55.7331 90.5819 55.4084 90.6384 55.0485 90.747C54.6783 90.8661 54.3091 91.0418 53.9407 91.2742C53.5723 91.5067 53.2358 91.8004 52.9313 92.1555L52.9163 91.1818C53.0173 91.036 53.1748 90.8635 53.3887 90.6644C53.5925 90.4757 53.8427 90.2864 54.1394 90.0963C54.426 89.9167 54.7491 89.7622 55.1087 89.633C55.4685 89.5141 55.8551 89.4515 56.2683 89.4451C56.7125 89.4383 57.1062 89.5095 57.4495 89.6588C57.793 89.8184 58.0601 90.0514 58.2508 90.3576C58.4417 90.6742 58.5407 91.0591 58.5477 91.5125L58.5604 92.3316C58.5695 92.9189 58.3957 93.3751 58.0391 93.7001C57.6723 94.0355 57.1583 94.2083 56.4972 94.2185L52.6542 94.2777Z" fill="black"/>
<path d="M44.0606 96.0753C43.1521 95.8773 42.5739 95.4031 42.3259 94.6528C42.0756 93.9127 42.0906 92.9033 42.3708 91.6247C42.5782 90.6784 42.8446 89.9454 43.17 89.4256C43.4932 88.9159 43.8882 88.5854 44.355 88.434C44.8218 88.2826 45.3681 88.2751 45.9939 88.4115C46.4784 88.5172 46.9435 88.6871 47.3892 88.9214C47.8349 89.1557 48.245 89.4561 48.6194 89.8225L48.3749 90.5762C47.9292 90.3419 47.5397 90.1409 47.2063 89.9733C46.8605 89.8135 46.4858 89.6897 46.0821 89.6016C45.6481 89.507 45.2883 89.5077 45.0029 89.6037C44.7074 89.6975 44.456 89.9275 44.2489 90.2937C44.0417 90.6599 43.8598 91.2004 43.7032 91.9152C43.5509 92.6098 43.4862 93.1706 43.509 93.5975C43.5217 94.0222 43.6304 94.3465 43.8351 94.5705C44.0275 94.8023 44.3206 94.9611 44.7142 95.047C45.118 95.135 45.5376 95.1263 45.9732 95.0208C46.4088 94.9153 46.932 94.7235 47.5429 94.4453L47.4905 95.3358C47.154 95.5683 46.791 95.7529 46.4015 95.8895C46.012 96.0261 45.6184 96.109 45.2206 96.1384C44.8106 96.1755 44.4239 96.1545 44.0606 96.0753ZM47.2646 96.584L47.4474 95.0258L47.4147 94.8129L48.4473 90.1014L48.5475 89.9334C48.579 89.645 48.6184 89.3687 48.6657 89.1048C48.7129 88.8408 48.7736 88.564 48.8477 88.2742L49.3143 86.145L50.5861 86.4223L48.3092 96.8117L47.2646 96.584Z" fill="black"/>
<path d="M35.1181 92.7936C34.6154 92.5523 34.2254 92.2793 33.9482 91.9747C33.6665 91.6793 33.5133 91.3313 33.4888 90.9307C33.4642 90.5301 33.5841 90.0559 33.8485 89.508L36.1537 84.7306L37.0893 85.1797L36.5585 86.7433L36.5544 86.93L35.0355 90.0778C34.8432 90.5001 34.7975 90.8442 34.8986 91.11C34.9952 91.3851 35.3134 91.6522 35.8534 91.9114C36.2165 92.0857 36.677 92.2839 37.2349 92.5059C37.7834 92.7235 38.3296 92.9342 38.8733 93.1381L38.5616 94.0692C38.2182 93.9729 37.8445 93.8564 37.4404 93.7196C37.0363 93.5828 36.632 93.4345 36.2275 93.2747C35.8231 93.1148 35.4533 92.9545 35.1181 92.7936ZM34.6961 89.1772L35.1402 88.2925L38.3866 89.8338C38.717 89.9809 38.9923 90.0044 39.2126 89.9043C39.4191 89.809 39.5918 89.6174 39.7307 89.3296L39.939 88.8978C40.1093 88.545 40.1509 88.2448 40.064 87.9972C39.9633 87.7544 39.7314 87.5459 39.3683 87.3716C39.1077 87.2465 38.792 87.1521 38.4214 87.0886C38.0369 87.0298 37.6278 87.0222 37.1941 87.0656C36.7604 87.109 36.3277 87.2215 35.8961 87.4031L36.3195 86.5256C36.4753 86.4403 36.6936 86.3564 36.9742 86.2738C37.241 86.196 37.5498 86.1384 37.9004 86.1009C38.2373 86.0681 38.5955 86.0743 38.9751 86.1192C39.3502 86.1735 39.724 86.29 40.0963 86.4688C40.4967 86.661 40.8168 86.9004 41.0568 87.1872C41.2924 87.4832 41.4267 87.8107 41.4599 88.1697C41.4886 88.538 41.4043 88.9265 41.2072 89.335L40.851 90.0732C40.5956 90.6025 40.2355 90.9329 39.7708 91.0643C39.2923 91.2006 38.7551 91.1257 38.1593 90.8397L34.6961 89.1772Z" fill="black"/>
<path d="M28.8226 88.7945L33.5466 82.9236L34.5619 83.7363L29.8379 89.6072L28.8226 88.7945ZM27.521 83.8678L28.1515 83.0842L31.4269 85.7061L30.7964 86.4897L27.521 83.8678ZM24.7132 85.5049L29.4373 79.6341L30.4525 80.4468L25.7285 86.3176L24.7132 85.5049Z" fill="black"/>
<path d="M20.1519 80.3211L26.038 75.6093L26.8625 76.634L20.9764 81.3457L20.1519 80.3211ZM18.4447 78.1994L19.2907 77.5221L23.5394 82.8022L22.6934 83.4795L18.4447 78.1994Z" fill="black"/>
<path d="M14.0147 69.8495L20.791 66.5346L21.3165 67.6033L16.8222 69.8018C16.6737 69.8744 16.5277 69.9401 16.384 69.9989C16.231 70.0623 16.0688 70.1302 15.8973 70.2026L15.9109 70.2303C16.0681 70.2223 16.2436 70.2283 16.4375 70.2482C16.6176 70.2634 16.7838 70.2854 16.936 70.3142L23.2341 71.503L23.7118 72.4745L16.9355 75.7893L16.4101 74.7207L20.9044 72.5222C21.0528 72.4496 21.2035 72.3816 21.3565 72.3182C21.4956 72.2502 21.6532 72.1845 21.8293 72.1214L21.8156 72.0936C21.6401 72.0877 21.4623 72.0771 21.2822 72.0619C21.1021 72.0467 20.9406 72.0224 20.7976 71.989L14.4856 70.807L14.0147 69.8495Z" fill="black"/>
<path d="M11.3505 59.7053L18.7299 58.1259L18.9802 59.2896L14.0859 60.3371C13.9243 60.3717 13.7666 60.4002 13.6129 60.4226C13.4491 60.4471 13.2752 60.4738 13.0912 60.5026L13.0977 60.5328C13.2522 60.563 13.421 60.6112 13.6043 60.6774C13.7754 60.7356 13.9313 60.7971 14.072 60.8618L19.8939 63.5365L20.1216 64.5944L12.7422 66.1738L12.4918 65.0101L17.3861 63.9626C17.5478 63.928 17.7105 63.8984 17.8743 63.8739C18.0258 63.8415 18.1946 63.8159 18.3808 63.7971L18.3743 63.7669C18.2054 63.7187 18.0355 63.6655 17.8645 63.6072C17.6934 63.549 17.5426 63.4864 17.412 63.4195L11.5749 60.7481L11.3505 59.7053Z" fill="black"/>
<path d="M46.2056 40.8309V70.76H39.5953V49.5494C39.5953 48.9999 39.6098 48.465 39.6388 47.9445C39.6678 47.3951 39.7403 46.8456 39.8563 46.2962L32.7242 48.118L31.9414 43.8238L39.5953 40.8309H46.2056Z" fill="#FA7436"/>
<path d="M63.8897 40.2236C66.7599 40.2236 69.0358 40.7297 70.7174 41.7418C72.4279 42.7539 73.6456 44.4021 74.3704 46.6866C75.1242 48.9421 75.5011 51.9784 75.5011 55.7954C75.5011 59.6125 75.1242 62.6632 74.3704 64.9477C73.6456 67.2032 72.4279 68.837 70.7174 69.8491C69.0358 70.8612 66.7599 71.3673 63.8897 71.3673C61.0195 71.3673 58.7291 70.8612 57.0185 69.8491C55.337 68.837 54.1338 67.2032 53.409 64.9477C52.6842 62.6632 52.3218 59.6125 52.3218 55.7954C52.3218 51.9784 52.6842 48.9421 53.409 46.6866C54.1338 44.4021 55.337 42.7539 57.0185 41.7418C58.7291 40.7297 61.0195 40.2236 63.8897 40.2236ZM63.8462 45.4287C62.8895 45.4287 62.0922 45.5877 61.4543 45.9058C60.8165 46.2239 60.3091 46.7589 59.9322 47.5107C59.5554 48.2626 59.2799 49.318 59.106 50.6771C58.961 52.0073 58.8885 53.7134 58.8885 55.7954C58.8885 57.8486 58.961 59.5547 59.106 60.9138C59.2799 62.2729 59.5554 63.3283 59.9322 64.0802C60.3091 64.832 60.8165 65.367 61.4543 65.6851C62.0922 66.0032 62.8895 66.1622 63.8462 66.1622C64.8319 66.1622 65.6437 66.0032 66.2815 65.6851C66.9484 65.367 67.4702 64.832 67.8471 64.0802C68.253 63.3283 68.5284 62.2729 68.6734 60.9138C68.8474 59.5547 68.9343 57.8486 68.9343 55.7954C68.9343 53.7134 68.8474 52.0073 68.6734 50.6771C68.5284 49.318 68.253 48.2626 67.8471 47.5107C67.4702 46.7589 66.9484 46.2239 66.2815 45.9058C65.6437 45.5877 64.8319 45.4287 63.8462 45.4287Z" fill="#FA7436"/>
</svg>
