<svg xmlns="http://www.w3.org/2000/svg" version="1.1" xmlns:xlink="http://www.w3.org/1999/xlink" xmlns:svgjs="http://svgjs.com/svgjs" width="512" height="512" x="0" y="0" viewBox="0 0 64 64" style="enable-background:new 0 0 512 512" xml:space="preserve" class="">
<g fill="none" stroke="currentColor" stroke-linecap="round" stroke-linejoin="round" stroke-width="3">
  <path d="M32 2c1.779 3.081 8.585 10.457 18.512 11.147A1.6 1.6 0 0 1 52 14.772C51.672 33.031 45.558 45.2 32 50c-13.558-4.8-19.672-16.969-20-35.228a1.6 1.6 0 0 1 1.488-1.625C23.415 12.457 30.221 5.081 32 2zM2 61.637A95.831 95.831 0 0 1 62 62" fill="none"></path>
  <path d="M32 12s9 9.9 9 18a9 9 0 0 1-18 0c0-8.1 9-18 9-18z" fill="none"></path>
  <path d="M27.231 28c.071-.33.158-.663.257-1M31 34.9a5.018 5.018 0 0 1-3.582-2.9" fill="none"></path>
  </g></svg>