<svg xmlns="http://www.w3.org/2000/svg" version="1.1" xmlns:xlink="http://www.w3.org/1999/xlink" xmlns:svgjs="http://svgjs.com/svgjs" width="512" height="512" x="0" y="0" viewBox="0 0 512 512" style="enable-background:new 0 0 512 512" xml:space="preserve" class=""><g><path d="M51 419.929h290M61 319.929h0M331 319.929h0M111 369.928c0-16.567 13.431-29.999 30-29.999h110c16.569 0 30 13.431 30 29.999" style="stroke-width:22;stroke-linecap:round;stroke-linejoin:round;stroke-miterlimit:10;" fill="none" stroke="currentColor" stroke-width="22" stroke-linecap="round" stroke-linejoin="round" stroke-miterlimit="10" data-original="currentColor" class=""></path><path d="M61 269.928v-51.666c0-21.17 17.162-38.334 38.334-38.334h193.333c21.17 0 38.333 17.163 38.333 38.334v51.666M331 269.928c-27.614 0-50 22.386-50 50.001v59.999H111v-59.999c0-27.615-22.386-50.001-50-50.001s-50 22.386-50 50.001c0 24.189 17.178 44.364 40 48.997v91.003h290v-91.003c22.822-4.633 40-24.808 40-48.997 0-27.615-22.386-50.001-50-50.001zM111 499.928H71v-39.999h50zM281 499.928h40v-39.999h-50zM466 499.928H366v-20c0-11.046 8.954-19.999 20-19.999h60c11.046 0 20 8.954 20 19.999v20zM416 389.928V142.072M463.93 151.412v69.999M396 389.928h40v70h-40z" style="stroke-width:22;stroke-linecap:round;stroke-linejoin:round;stroke-miterlimit:10;" fill="none" stroke="currentColor" stroke-width="22" stroke-linecap="round" stroke-linejoin="round" stroke-miterlimit="10" data-original="currentColor" class=""></path><path d="M501 142.072H331l30-130.001h110z" style="stroke-width:22;stroke-linecap:round;stroke-linejoin:round;stroke-miterlimit:10;" fill="none" stroke="currentColor" stroke-width="22" stroke-linecap="round" stroke-linejoin="round" stroke-miterlimit="10" data-original="currentColor" class=""></path><circle cx="463.93" cy="241.412" r="20" style="stroke-width:22;stroke-linecap:round;stroke-linejoin:round;stroke-miterlimit:10;" transform="rotate(-87.404 463.928 241.403)" fill="none" stroke="currentColor" stroke-width="22" stroke-linecap="round" stroke-linejoin="round" stroke-miterlimit="10" data-original="currentColor" class=""></circle></g></svg>