<svg xmlns="http://www.w3.org/2000/svg" version="1.1" xmlns:xlink="http://www.w3.org/1999/xlink" xmlns:svgjs="http://svgjs.com/svgjs" width="512" height="512" x="0" y="0" viewBox="0 0 512 512" style="enable-background:new 0 0 512 512" xml:space="preserve" class=""><g><path d="M464 304v-24a40.04 40.04 0 0 0-40-40H288a39.947 39.947 0 0 0-32 16.03A39.947 39.947 0 0 0 224 240H88a40.04 40.04 0 0 0-40 40v24a40.04 40.04 0 0 0-40 40v144a8 8 0 0 0 8 8h480a8 8 0 0 0 8-8V344a40.04 40.04 0 0 0-40-40ZM88 480H24V344a24.032 24.032 0 0 1 24-24h16a24.032 24.032 0 0 1 24 24ZM64 304v-24a24.032 24.032 0 0 1 24-24h136a24.032 24.032 0 0 1 24 24v96.02a39.808 39.808 0 0 0-24-8.02h-96a39.808 39.808 0 0 0-24 8.02V344a40.04 40.04 0 0 0-40-40Zm184 104v24H104v-24a24.032 24.032 0 0 1 24-24h96a24.032 24.032 0 0 1 24 24Zm160 72H104v-32h304Zm0-48H264v-24a24.032 24.032 0 0 1 24-24h96a24.032 24.032 0 0 1 24 24Zm0-88v32.02a39.808 39.808 0 0 0-24-8.02h-96a39.808 39.808 0 0 0-24 8.02V280a24.032 24.032 0 0 1 24-24h136a24.032 24.032 0 0 1 24 24v24a40.04 40.04 0 0 0-40 40Zm80 136h-64V344a24.032 24.032 0 0 1 24-24h16a24.032 24.032 0 0 1 24 24ZM376 16H136a8 8 0 0 0-8 8v176a8 8 0 0 0 8 8h240a8 8 0 0 0 8-8V24a8 8 0 0 0-8-8Zm-8 176H144V32h224Z" fill="#000000" data-original="#000000" class=""></path><path d="M352 40H160a8 8 0 0 0-8 8v128a8 8 0 0 0 8 8h192a8 8 0 0 0 8-8V48a8 8 0 0 0-8-8ZM193.08 168 216 140.5l22.92 27.5Zm66.67 0-16.67-20 32.59-39.11L320 168Zm84.25 0h-4l-57.6-76.8a8 8 0 0 0-12.55-.32l-37.18 44.62-10.52-12.62a8.006 8.006 0 0 0-12.3 0L172.25 168H168V56h176Z" fill="#000000" data-original="#000000" class=""></path><path d="M216 112a24 24 0 1 0-24-24 24.027 24.027 0 0 0 24 24Zm0-32a8 8 0 1 1-8 8 8.009 8.009 0 0 1 8-8Z" fill="#000000" data-original="#000000" class=""></path></g></svg>