<svg xmlns="http://www.w3.org/2000/svg" version="1.1" xmlns:xlink="http://www.w3.org/1999/xlink"
  xmlns:svgjs="http://svgjs.com/svgjs" width="512" height="512" x="0" y="0" viewBox="0 0 32 32"
  style="enable-background:new 0 0 512 512" xml:space="preserve" class="">

    <path 
      d="M30 19.76a1 1 0 0 1-1 1 4.089 4.089 0 0 1-2.826-1.1 2.213 2.213 0 0 0-3.155 0 4.182 4.182 0 0 1-5.65 0 2.206 2.206 0 0 0-3.148 0 4.079 4.079 0 0 1-2.823 1.1 1 1 0 0 1 0-2 2.178 2.178 0 0 0 1.573-.66 4.178 4.178 0 0 1 5.648 0 2.4 2.4 0 0 0 1.191.624C18.8 14.516 13.937 7.415 12 4.7 9.192 8.61 4 16.563 4 20a8 8 0 0 0 12.443 6.653 1 1 0 0 1 1.113 1.662A10 10 0 0 1 2 20c0-5.155 8.258-16.34 9.2-17.6a1.036 1.036 0 0 1 1.6 0c.316.422 7.464 10.024 8.928 15.73l.041-.032a4.183 4.183 0 0 1 5.651 0 2.183 2.183 0 0 0 1.58.662 1 1 0 0 1 1 1zm-1 3.12a2.183 2.183 0 0 1-1.578-.661 4.183 4.183 0 0 0-5.651 0 2.209 2.209 0 0 1-3.152 0 4.178 4.178 0 0 0-5.648 0 2.178 2.178 0 0 1-1.573.66 1 1 0 0 0 0 2 4.079 4.079 0 0 0 2.823-1.1 2.206 2.206 0 0 1 3.148 0 4.182 4.182 0 0 0 5.65 0 2.213 2.213 0 0 1 3.155 0A4.089 4.089 0 0 0 29 24.88a1 1 0 0 0 0-2zM21 10.5c0-2.163 3.087-6.3 3.706-7.108a1.037 1.037 0 0 1 1.588 0C26.913 4.2 30 8.337 30 10.5a4.5 4.5 0 0 1-9 0zm2 0a2.5 2.5 0 0 0 5 0c0-.9-1.284-3.066-2.5-4.8-1.216 1.734-2.5 3.9-2.5 4.8z"
      ></path>

</svg>