<svg width="100" height="100" viewBox="0 0 100 100" fill="none" xmlns="http://www.w3.org/2000/svg">
<path d="M49.6731 96.7574C46.2594 96.7574 42.8471 96.0692 39.6875 94.6949L24.5782 88.1267C19.1194 85.7511 13.3238 84.2407 7.4 83.65L2.43842 83.1541C2.04415 83.1149 1.67854 82.9305 1.41269 82.6367C1.14684 82.3429 0.999741 81.9608 1 81.5646V66.0003C1 65.655 1.11229 65.3186 1.31978 65.0426C1.69079 64.5466 10.5837 52.9287 24.1679 55.9515C31.8079 57.6493 37.9595 60.8265 41.7746 63.1931C44.5443 64.9111 47.7907 65.8185 51.1635 65.8185H66.2728C68.8771 65.8185 71.166 67.1963 72.4461 69.2633L85.4594 54.2709C87.9823 50.9019 92.11 48.8387 96.4311 48.8387H97.4033C97.6687 48.8386 97.93 48.9047 98.1635 49.0311C98.3969 49.1575 98.5951 49.3401 98.7401 49.5625C98.8853 49.7849 98.9727 50.0399 98.9946 50.3045C99.0164 50.5692 98.972 50.8351 98.8653 51.0783L87.096 77.8264C84.5228 83.6764 79.2831 88.0953 73.0814 89.646L71.0107 90.1632L58.9654 94.9817C56.0011 96.1667 52.8365 96.7574 49.6731 96.7574ZM4.1945 80.1194L7.71814 80.4719C13.9718 81.0961 20.09 82.6907 25.8528 85.1981L40.9612 91.7663C46.2739 94.0764 52.4007 94.1667 57.7803 92.0148L69.9244 87.1573C69.992 87.1306 70.0605 87.1086 70.1307 87.0913L72.3064 86.5467C77.5581 85.2337 81.9943 81.4927 84.1719 76.54L94.9068 52.1431C92.1582 52.5478 89.6289 54.0291 87.944 56.2752L73.5282 72.8894C73.5301 72.9516 73.531 73.0129 73.531 73.0758C73.531 77.0774 70.2753 80.3332 66.2737 80.3332H45.1929C42.4573 80.3324 39.7395 80.7734 37.1445 81.6389L36.5578 80.1493L36.0616 78.6316L36.1428 78.6052C39.061 77.6325 42.117 77.1373 45.1929 77.1384H66.2737C68.5133 77.1384 70.3372 75.3154 70.3372 73.0751C70.3372 70.8348 68.5143 69.0114 66.2739 69.0114H51.1646C47.1958 69.0114 43.3671 67.9376 40.0922 65.9064C36.4883 63.6703 30.6785 60.6705 23.4771 59.0688C13.1897 56.7868 5.78731 64.6818 4.19544 66.5652V80.1194H4.1945ZM63.8951 48.478C61.4389 48.478 58.6849 47.7196 55.653 46.2035C55.2854 46.0186 55.0029 45.6998 54.8635 45.3127C54.74 44.9665 51.8863 36.758 56.4214 30.6876C59.7174 26.2751 65.9146 24.2874 74.8513 24.7857C75.2451 24.8074 75.6169 24.9742 75.8949 25.254C76.1728 25.5338 76.3373 25.9066 76.3564 26.3006C76.3882 26.9347 77.0472 41.9035 69.4144 46.887C67.7914 47.9479 65.9476 48.478 63.8951 48.478ZM57.6898 43.6404C61.8848 45.6077 65.2386 45.8007 67.6691 44.2135C72.1951 41.2574 73.1736 32.4821 73.1975 27.9151C66.1951 27.7444 61.4279 29.3224 58.9799 32.5983C56.0668 36.4993 57.199 41.8649 57.6898 43.6404ZM39.4716 27.5532C36.6399 27.5532 33.3731 26.9467 30.5222 24.8586C25.6865 21.3151 23.4642 14.5687 23.9157 4.80763C23.9341 4.41354 24.0976 4.04018 24.3748 3.75945C24.652 3.47872 25.0232 3.31047 25.417 3.2871C26.1078 3.2478 42.4588 2.37526 47.9608 10.634C50.523 14.4782 50.3129 19.5132 47.3385 25.6016C47.1579 25.9716 46.8413 26.2574 46.4547 26.3993C46.2402 26.4788 43.242 27.5535 39.4718 27.5535L39.4716 27.5532ZM27.059 6.42967C26.9209 14.248 28.7184 19.577 32.4093 22.2817C36.8282 25.5193 42.8619 24.1431 44.7588 23.5903C46.9291 18.8806 47.1128 15.1205 45.3036 12.4049C41.9409 7.35719 32.0793 6.37026 27.059 6.42967Z" fill="currentColor"/>
<path d="M51.9438 68.4504C51.7272 68.4506 51.5128 68.4067 51.3136 68.3215C51.1145 68.2362 50.9348 68.1112 50.7854 67.9543C50.6361 67.7973 50.5203 67.6117 50.445 67.4085C50.3697 67.2054 50.3365 66.989 50.3475 66.7727C50.4352 64.9841 50.5932 63.1997 50.821 61.4235C51.4853 50.1218 51.1426 23.8034 34.5027 16.5222C34.1146 16.3524 33.8099 16.0354 33.6555 15.641C33.501 15.2465 33.5096 14.8069 33.6793 14.4187C34.0321 13.6119 34.976 13.2437 35.7828 13.5965C45.5885 17.8867 51.7576 28.5678 53.6187 44.4849C53.786 45.9111 53.9112 47.3175 54.0045 48.6871C58.3869 37.613 65.0912 33.7004 65.4905 33.4765C66.2583 33.0423 67.2323 33.3184 67.6653 34.0849C68.0958 34.8527 67.8253 35.824 67.0604 36.2572C66.8915 36.3559 56.6107 42.5257 54.03 61.5521C53.8335 64.8072 53.5504 66.8824 53.5238 67.0723C53.471 67.454 53.282 67.8037 52.9916 68.0569C52.7012 68.3101 52.3291 68.4498 51.9438 68.4502V68.4504Z" fill="currentColor"/>
</svg>
