<svg width="100" height="100" viewBox="0 0 100 100" fill="none" xmlns="http://www.w3.org/2000/svg">
<path d="M54.9759 22.9109L51.6117 17.0841C50.4078 14.9986 47.7265 14.316 45.6764 15.5728C42.2413 17.6796 39.5352 20.7895 37.9233 24.4828C31.6281 21.6038 24.6002 21.7797 18.6373 24.4879C17.0258 20.7916 14.3184 17.679 10.8811 15.5707C8.83558 14.3172 6.15302 14.9909 4.94582 17.082L1.58184 22.909C0.889144 24.1091 0.811241 25.5257 1.36804 26.7961C1.91891 28.0525 2.99902 28.9448 4.33121 29.2438C6.26116 29.6775 8.1247 30.4705 9.79396 31.5606C8.30435 33.5291 7.13933 35.7232 6.34309 38.0598C6.02057 39.0058 6.14287 40.047 6.63919 40.8969C4.47649 50.9566 9.47737 60.9335 18.4729 65.3873C16.6877 67.6634 15.7917 70.4156 15.7917 73.1682C15.7917 74.4254 16.5604 75.5713 17.7236 76.0525C17.5718 77.8158 18.8337 79.3916 20.5966 79.6177V80.5002C20.5966 83.014 22.6417 85.059 25.1553 85.059C26.3631 85.059 27.4619 84.5858 28.2785 83.8164C29.095 84.5858 30.1939 85.059 31.4017 85.059C33.9154 85.059 35.9604 83.0138 35.9604 80.5002V79.6177C37.7229 79.3916 38.9852 77.8161 38.8334 76.0525C39.966 75.5838 40.7653 74.4681 40.7653 73.1682C40.7653 71.5818 40.4477 70.3434 40.4477 70.3434C40.0362 68.5379 39.2294 66.8462 38.0854 65.39C38.9506 64.9613 39.7916 64.4774 40.6003 63.933C40.9161 63.7204 41.1345 63.3911 41.2075 63.0175C41.2805 62.6438 41.2022 62.2565 40.9896 61.9407C40.8844 61.7842 40.7494 61.65 40.5923 61.5458C40.4352 61.4415 40.2591 61.3693 40.074 61.3331C39.889 61.2969 39.6986 61.2976 39.5138 61.3351C39.329 61.3725 39.1534 61.446 38.9971 61.5514C35.8341 63.6804 32.1275 64.8056 28.2781 64.8056C16.2901 64.8056 7.10929 53.923 9.34377 42.0108H16.4656C23.9864 42.0108 31.0845 39.2575 36.6081 34.2284L42.1088 39.7293C43.4833 41.1036 45.2809 41.9008 47.2076 41.9997C48.3161 47.8868 46.6189 53.6836 42.9666 57.9954C42.7206 58.2859 42.6 58.6623 42.6314 59.0417C42.6628 59.4211 42.8436 59.7725 43.1341 60.0186C43.4246 60.2646 43.801 60.3852 44.1804 60.3538C44.5598 60.3224 44.9112 60.1416 45.1573 59.8511C49.4293 54.8079 51.4226 47.9146 49.9159 40.9009C50.4141 40.0506 50.5372 39.0069 50.2137 38.0589C49.4158 35.7239 48.25 33.5314 46.7603 31.5642C48.4305 30.473 50.2954 29.6791 52.2261 29.2454C55.0373 28.6145 56.4241 25.4197 54.9759 22.9109ZM26.8433 80.5006C26.8433 81.4312 26.0863 82.1882 25.1557 82.1882C24.2251 82.1882 23.4681 81.4312 23.4681 80.5006V79.6458H26.8433V80.5006ZM33.0897 80.5006C33.0897 81.4312 32.3325 82.1882 31.402 82.1882C30.4716 82.1882 29.7144 81.4312 29.7144 80.5006V79.6458H33.0897V80.5006ZM18.9084 70.9837L18.9101 70.9841C19.2886 69.321 20.0998 67.7874 21.2615 66.5386C23.5238 67.2944 25.8935 67.6787 28.2787 67.6767C30.6914 67.6767 33.0552 67.2886 35.297 66.5408C36.4589 67.7885 37.2705 69.3212 37.6494 70.9835C37.8126 71.7003 37.8948 72.4331 37.8946 73.1682C37.8946 73.306 37.7824 73.4182 37.6446 73.4182H37.5696L36.0689 71.1674C35.9654 71.0083 35.8313 70.8713 35.6744 70.7644C35.5175 70.6575 35.341 70.5827 35.1551 70.5445C34.9691 70.5062 34.7774 70.5052 34.5911 70.5415C34.4047 70.5779 34.2275 70.6508 34.0695 70.7561C33.9115 70.8614 33.776 70.997 33.6708 71.155C33.5656 71.3131 33.4928 71.4904 33.4566 71.6768C33.4204 71.8631 33.4215 72.0548 33.4599 72.2407C33.4983 72.4267 33.5731 72.6031 33.6802 72.7599L35.9022 76.0929C36.0961 76.3838 35.8907 76.7745 35.5374 76.7745H21.0202C20.6701 76.7745 20.4597 76.3867 20.6553 76.0929L22.8774 72.7601C22.982 72.6033 23.0546 72.4273 23.0912 72.2424C23.1278 72.0575 23.1276 71.8671 23.0906 71.6823C23.0537 71.4974 22.9806 71.3216 22.8757 71.165C22.7708 71.0083 22.6361 70.8739 22.4792 70.7693C22.1624 70.5582 21.7748 70.4816 21.4015 70.5562C21.0282 70.6308 20.6997 70.8506 20.4884 71.1672L18.913 73.4182C18.7751 73.4182 18.663 73.306 18.663 73.1682C18.6657 72.4333 18.7479 71.7009 18.9084 70.9837ZM4.96056 26.4426C4.0397 26.2357 3.59008 25.1732 4.06822 24.3446L7.43238 18.5178C7.82898 17.831 8.7104 17.6082 9.3809 18.019C12.3822 19.8603 14.7296 22.5974 16.0922 25.8442C14.4825 26.8338 13.0009 28.0178 11.6807 29.3696C9.64504 27.9834 7.34682 26.9785 4.96056 26.4426ZM47.5244 39.139C46.2453 39.1156 45.0463 38.6065 44.139 37.6992L37.6471 31.2071C37.3778 30.938 37.0127 30.7868 36.632 30.7869C36.2513 30.7869 35.8862 30.9381 35.617 31.2073C30.5017 36.3228 23.7002 39.1399 16.4658 39.1399H9.03292C9.03446 39.0881 9.04364 39.0366 9.06068 38.9866C13.1463 27.0084 27.0632 21.7644 38.0048 27.7298C38.6445 28.0782 38.7586 28.5014 38.7888 28.7894C38.8258 29.1423 38.9922 29.469 39.2558 29.7064C39.5195 29.9439 39.8617 30.0753 40.2165 30.0753C40.9791 30.0753 41.3766 30.024 41.7822 30.3844C45.7732 33.9331 47.507 38.6333 47.5244 39.139ZM44.8746 29.373C43.6917 28.1597 42.909 27.3694 41.3064 27.2258C41.096 26.7582 40.794 26.3365 40.4148 25.9687C41.7687 22.6692 44.1369 19.8857 47.1768 18.0207C47.85 17.608 48.7305 17.8354 49.1255 18.5195L52.4895 24.3461C52.9686 25.1757 52.5169 26.2376 51.5972 26.4443C49.2101 26.9806 46.911 27.9859 44.8746 29.373Z" fill="currentColor"/>
<path d="M18.7059 48.0283V49.6032C18.7059 50.3962 19.3486 51.0387 20.1414 51.0387C20.9342 51.0387 21.577 50.3962 21.577 49.6032V48.0283C21.577 47.6476 21.4257 47.2824 21.1565 47.0132C20.8873 46.744 20.5221 46.5927 20.1414 46.5927C19.7607 46.5927 19.3955 46.744 19.1263 47.0132C18.8571 47.2824 18.7059 47.6476 18.7059 48.0283ZM35.0962 48.0283V49.6032C35.0962 50.3962 35.7389 51.0387 36.5317 51.0387C37.3246 51.0387 37.9673 50.3962 37.9673 49.6032V48.0283C37.9673 47.6476 37.8161 47.2824 37.5468 47.0132C37.2776 46.744 36.9125 46.5927 36.5317 46.5927C36.151 46.5927 35.7859 46.744 35.5167 47.0132C35.2474 47.2824 35.0962 47.6476 35.0962 48.0283ZM29.4151 48.613C29.1427 48.9258 28.7495 49.1049 28.3367 49.1049C27.9238 49.1049 27.5308 48.9256 27.2583 48.613C27.0081 48.326 26.6542 48.1501 26.2744 48.124C25.8945 48.0979 25.5199 48.2237 25.2328 48.4739C24.9458 48.724 24.7699 49.0779 24.7438 49.4578C24.7177 49.8376 24.8435 50.2123 25.0937 50.4993C25.9115 51.4376 27.0935 51.976 28.3365 51.976C29.5795 51.976 30.7614 51.4378 31.5793 50.4993C31.8242 50.2116 31.9458 49.839 31.9177 49.4622C31.8897 49.0854 31.7142 48.7349 31.4294 48.4866C31.1445 48.2384 30.7733 48.1124 30.3963 48.1361C30.0192 48.1598 29.6666 48.3311 29.4151 48.613ZM66.7367 48.8921V50.4942C66.7367 51.2872 67.3792 51.9297 68.1722 51.9297C68.9652 51.9297 69.6078 51.2872 69.6078 50.4942V48.8921C69.6078 48.0991 68.9652 47.4566 68.1722 47.4566C67.3792 47.4566 66.7367 48.0991 66.7367 48.8921ZM83.412 48.8921V50.4942C83.412 51.2872 84.0546 51.9297 84.8476 51.9297C85.6406 51.9297 86.2831 51.2872 86.2831 50.4942V48.8921C86.2831 48.0991 85.6406 47.4566 84.8476 47.4566C84.0546 47.4566 83.412 48.0991 83.412 48.8921ZM77.626 49.5033C77.3439 49.8265 76.9371 50.0122 76.5099 50.0122C76.0827 50.0122 75.676 49.8267 75.394 49.5035C75.2708 49.3591 75.1203 49.2405 74.951 49.1547C74.7817 49.0688 74.5971 49.0174 74.4078 49.0034C74.2186 48.9894 74.0284 49.013 73.8483 49.073C73.6683 49.1329 73.5019 49.228 73.3588 49.3527C73.2157 49.4773 73.0987 49.6291 73.0147 49.7993C72.9306 49.9695 72.8811 50.1546 72.8691 50.344C72.8571 50.5334 72.8827 50.7233 72.9446 50.9028C73.0064 51.0822 73.1032 51.2476 73.2294 51.3894C73.6377 51.8584 74.1417 52.2344 74.7076 52.4921C75.2735 52.7498 75.8881 52.8832 76.5099 52.8833C77.1317 52.8832 77.7462 52.7498 78.312 52.4921C78.8779 52.2344 79.3819 51.8585 79.7902 51.3896C79.9141 51.2475 80.0088 51.0824 80.0689 50.9037C80.1289 50.725 80.1532 50.5362 80.1403 50.3481C80.1274 50.1601 80.0776 49.9764 79.9937 49.8076C79.9098 49.6388 79.7934 49.4881 79.6513 49.3643C79.5092 49.2404 79.3441 49.1457 79.1654 49.0856C78.9867 49.0255 78.7979 49.0012 78.6098 49.0141C78.4218 49.027 78.2381 49.0769 78.0693 49.1608C77.9004 49.2447 77.7498 49.3611 77.626 49.5033Z" fill="currentColor"/>
<path d="M95.7809 33.4626C96.6281 31.8913 97.3036 30.2333 97.7957 28.5172C98.6509 25.5265 95.347 23.1448 92.7862 24.8172C91.7208 25.513 90.6069 26.1314 89.4528 26.6675C85.6526 23.9844 81.1959 22.5708 76.5097 22.5708C64.1087 22.5708 54.0196 32.66 54.0196 45.0613C54.0196 54.1294 59.4148 61.9604 67.1635 65.515C66.215 66.5492 65.4442 67.7332 64.8823 69.0191C63.9113 71.2461 63.8309 72.9776 63.8309 74.7014C63.8309 77.2452 65.9004 79.3147 68.444 79.3147H68.5078V80.3408C68.5078 82.9428 70.6245 85.0593 73.2261 85.0593C74.5009 85.0593 75.6593 84.5512 76.5091 83.7268C77.359 84.5512 78.5174 85.0593 79.7922 85.0593C82.3939 85.0593 84.5105 82.9426 84.5105 80.3408V79.3147H84.5758C87.1194 79.3147 89.1889 77.2452 89.1889 74.7014C89.1889 72.9778 89.1085 71.2463 88.1375 69.0189C87.5762 67.7345 86.8066 66.5517 85.8597 65.5183C86.8691 65.0566 87.8427 64.5208 88.7728 63.915C88.9307 63.8121 89.0669 63.6791 89.1734 63.5236C89.2799 63.3681 89.3548 63.1931 89.3937 63.0086C89.4326 62.8241 89.4347 62.6338 89.4001 62.4485C89.3654 62.2632 89.2945 62.0865 89.1916 61.9286C88.7584 61.2643 87.8687 61.0767 87.2051 61.5098C84.0222 63.5839 80.3239 64.6801 76.5095 64.6801C66.1741 64.6801 57.6805 56.6466 56.9432 46.4961L74.5625 46.4921L74.5893 46.4919C79.0709 46.4074 83.3211 45.1231 86.9873 42.8538C89.6372 44.8923 92.813 46.1355 96.0765 46.4274C95.7782 50.7087 94.0906 54.7819 91.24 58.0188C90.9935 58.3052 90.87 58.6773 90.8961 59.0543C90.9222 59.4314 91.0959 59.7829 91.3795 60.0326C91.6631 60.2824 92.0338 60.4102 92.4111 60.3885C92.7883 60.3667 93.1418 60.1971 93.3948 59.9164C97.0092 55.8121 99.0022 50.5302 99 45.0613C99.0002 40.9499 97.8898 36.9589 95.7809 33.4626ZM68.5076 76.4436H68.4438C67.4832 76.4436 66.7018 75.662 66.7018 74.7014C66.7018 73.935 66.7032 73.0469 66.9199 72.0154C67.4362 72.3982 67.9658 72.7628 68.5076 73.1087V76.4436ZM81.6396 80.3408C81.6396 81.3595 80.811 82.1882 79.7923 82.1882C78.7737 82.1882 77.9449 81.3595 77.9449 80.3408V78.9766C77.9449 78.1836 77.3023 77.5411 76.5093 77.5411C75.7163 77.5411 75.0738 78.1836 75.0738 78.9766V80.3408C75.0738 81.3595 74.245 82.1882 73.2263 82.1882C72.2077 82.1882 71.3791 81.3595 71.3791 80.3408V76.1369H81.6396V80.3408ZM86.104 72.0121C86.2745 72.8382 86.3178 73.671 86.3178 74.7014C86.3178 75.662 85.5365 76.4436 84.5758 76.4436H84.5107V73.1094C85.0544 72.7623 85.5858 72.3963 86.104 72.0121ZM70.1343 66.6294C72.204 67.2419 74.3513 67.5524 76.5097 67.5512C78.6875 67.5512 80.8326 67.2388 82.8883 66.6317C83.7433 67.3669 84.4662 68.243 85.0258 69.222C84.1729 69.8983 83.2759 70.5171 82.3409 71.0744C82.1272 71.2016 81.9502 71.3822 81.8272 71.5984C81.7043 71.8146 81.6396 72.0591 81.6396 72.3078V73.2656H71.3789V72.3073C71.3789 72.0586 71.3142 71.8141 71.1913 71.5979C71.0684 71.3817 70.8914 71.2011 70.6777 71.0738C69.7431 70.5168 68.8466 69.8982 67.994 69.2222C68.5543 68.2421 69.2781 67.3651 70.1343 66.6294ZM74.5484 43.6211L56.9436 43.6252C57.6814 33.4751 66.1747 25.4421 76.5097 25.4421C80.8497 25.4421 84.963 26.8313 88.4049 29.4597C88.6117 29.6175 88.8575 29.7161 89.1161 29.7451C89.3746 29.774 89.6361 29.7322 89.8728 29.6241C91.434 28.9541 92.9342 28.1499 94.3565 27.2207C94.7127 26.9883 95.151 27.3206 95.0352 27.7275C94.5333 29.4825 93.8052 31.1828 92.8715 32.7808C92.8637 32.7942 92.8585 32.8088 92.8511 32.8224C88.968 39.4383 82.1306 43.4738 74.5484 43.6211ZM89.4611 41.1003C91.1991 39.6977 92.74 38.067 94.042 36.2524C95.1867 38.5261 95.8754 41.0018 96.0694 43.54C93.7287 43.2866 91.448 42.4463 89.4611 41.1003Z" fill="currentColor"/>
</svg>
