<svg width="100" height="100" viewBox="0 0 100 100" fill="none" xmlns="http://www.w3.org/2000/svg">
<path d="M56.8906 41.1953H43.1094C42.0522 41.1953 41.1953 42.0524 41.1953 43.1094V56.8906C41.1953 57.9476 42.0522 58.8047 43.1094 58.8047H56.8906C57.9478 58.8047 58.8047 57.9476 58.8047 56.8906V43.1094C58.8047 42.0524 57.9478 41.1953 56.8906 41.1953ZM54.9766 54.9766H45.0234V45.0234H54.9766V54.9766ZM92.4922 11.3359C88.9037 11.3359 85.9844 14.2553 85.9844 17.8438C85.9844 21.4322 88.9037 24.3516 92.4922 24.3516C96.0807 24.3516 99 21.4322 99 17.8438C99 14.2553 96.0807 11.3359 92.4922 11.3359ZM92.4922 20.5234C91.0145 20.5234 89.8125 19.3214 89.8125 17.8438C89.8125 16.3661 91.0145 15.1641 92.4922 15.1641C93.9698 15.1641 95.1719 16.3661 95.1719 17.8438C95.1719 19.3214 93.9698 20.5234 92.4922 20.5234ZM82.652 16.4848C82.2922 16.1272 81.806 15.9257 81.2987 15.9239C80.7934 15.9239 80.2996 16.1288 79.9436 16.4848C79.5865 16.8447 79.3857 17.331 79.3847 17.838C79.3847 18.3414 79.5876 18.8352 79.9436 19.1912C80.3042 19.5489 80.7909 19.7503 81.2987 19.7521C81.8021 19.7521 82.296 19.5473 82.652 19.1912C83.008 18.8352 83.2128 18.3414 83.2128 17.838C83.2128 17.3346 83.008 16.8408 82.652 16.4848Z" fill="currentColor"/>
<path d="M80.5358 51.9141C81.3552 54.5714 83.8335 56.5078 86.7559 56.5078C90.3444 56.5078 93.2637 53.5885 93.2637 50C93.2637 46.4115 90.3442 43.4922 86.7559 43.4922C83.8334 43.4922 81.355 45.4286 80.5358 48.0859H68.7578V33.1562C68.7578 32.0993 67.9009 31.2422 66.8438 31.2422H63.7812V19.7521H74.5042C75.5613 19.7521 76.4183 18.895 76.4183 17.838C76.4183 16.7811 75.5613 15.9239 74.5042 15.9239H61.8672C60.8101 15.9239 59.9531 16.7811 59.9531 17.838V31.2422H51.9141V19.4644C54.5712 18.645 56.5078 16.1668 56.5078 13.2443C56.5078 9.65577 53.5885 6.73644 50 6.73644C46.4115 6.73644 43.4922 9.65577 43.4922 13.2443C43.4922 16.1668 45.4288 18.6452 48.0859 19.4644V31.2422H33.1562C32.0991 31.2422 31.2422 32.0993 31.2422 33.1562V36.2188H19.7519V13.7297C22.412 12.9122 24.3516 10.4325 24.3516 7.50781C24.3516 3.91933 21.4322 1 17.8438 1C14.2553 1 11.3359 3.91933 11.3359 7.50781C11.3359 10.4283 13.2697 12.9051 15.9238 13.7262V38.1328C15.9238 39.1898 16.7807 40.0469 17.8378 40.0469H31.2422V48.0859H19.4642C18.6448 45.4286 16.1665 43.4922 13.2441 43.4922C9.65558 43.4922 6.73625 46.4115 6.73625 50C6.73625 53.5885 9.65558 56.5078 13.2441 56.5078C16.1666 56.5078 18.645 54.5714 19.4642 51.9141H31.2422V66.8438C31.2422 67.9007 32.0991 68.7578 33.1562 68.7578H36.2188V80.2479H25.4958C24.4387 80.2479 23.5817 81.105 23.5817 82.162C23.5817 83.2189 24.4387 84.0761 25.4958 84.0761H38.1328C39.1899 84.0761 40.0469 83.2189 40.0469 82.162V68.7578H48.0859V80.5356C45.4288 81.355 43.4922 83.8332 43.4922 86.7557C43.4922 90.3442 46.4115 93.2636 50 93.2636C53.5885 93.2636 56.5078 90.3442 56.5078 86.7557C56.5078 83.8332 54.5712 81.3548 51.9141 80.5356V68.7578H66.8438C67.9009 68.7578 68.7578 67.9007 68.7578 66.8438V63.7812H80.2481V86.2703C77.588 87.0878 75.6484 89.5675 75.6484 92.4922C75.6484 96.0807 78.5678 99 82.1562 99C85.7447 99 88.6641 96.0807 88.6641 92.4922C88.6641 89.5717 86.7303 87.0949 84.0762 86.2738V61.8672C84.0762 60.8102 83.2193 59.9531 82.1622 59.9531H68.7578V51.9141H80.5358ZM86.7559 47.3203C88.2336 47.3203 89.4356 48.5223 89.4356 50C89.4356 51.4777 88.2334 52.6797 86.7559 52.6797C85.2783 52.6797 84.0762 51.4777 84.0762 50C84.0762 48.5223 85.2783 47.3203 86.7559 47.3203ZM17.8438 10.1875C16.3661 10.1875 15.1641 8.98547 15.1641 7.50781C15.1641 6.03016 16.3661 4.82812 17.8438 4.82812C19.3214 4.82812 20.5234 6.03016 20.5234 7.50781C20.5234 8.98547 19.3214 10.1875 17.8438 10.1875ZM13.2441 52.6797C11.7664 52.6797 10.5644 51.4777 10.5644 50C10.5644 48.5223 11.7664 47.3203 13.2441 47.3203C14.7217 47.3203 15.9238 48.5223 15.9238 50C15.9238 51.4777 14.7217 52.6797 13.2441 52.6797ZM47.3203 13.2443C47.3203 11.7666 48.5223 10.5646 50 10.5646C51.4777 10.5646 52.6797 11.7666 52.6797 13.2443C52.6797 14.7219 51.4777 15.9239 50 15.9239C48.5223 15.9239 47.3203 14.7219 47.3203 13.2443ZM52.6797 86.7557C52.6797 88.2334 51.4777 89.4354 50 89.4354C48.5223 89.4354 47.3203 88.2334 47.3203 86.7557C47.3203 85.2781 48.5223 84.0761 50 84.0761C51.4777 84.0761 52.6797 85.2781 52.6797 86.7557ZM64.9297 64.9297H35.0703V35.0703H64.9297V64.9297ZM82.1562 89.8125C83.6339 89.8125 84.8359 91.0145 84.8359 92.4922C84.8359 93.9698 83.6339 95.1719 82.1562 95.1719C80.6786 95.1719 79.4766 93.9698 79.4766 92.4922C79.4766 91.0145 80.6786 89.8125 82.1562 89.8125ZM7.50781 75.6484C3.91933 75.6484 1 78.5678 1 82.1562C1 85.7447 3.91933 88.6641 7.50781 88.6641C11.0963 88.6641 14.0156 85.7447 14.0156 82.1562C14.0156 78.5678 11.0963 75.6484 7.50781 75.6484ZM7.50781 84.8359C6.03016 84.8359 4.82812 83.6339 4.82812 82.1562C4.82812 80.6786 6.03016 79.4766 7.50781 79.4766C8.98547 79.4766 10.1875 80.6786 10.1875 82.1562C10.1875 83.6339 8.98547 84.8359 7.50781 84.8359ZM20.0583 80.8087C19.7023 80.4527 19.2085 80.2479 18.7051 80.2479C18.2017 80.2479 17.7079 80.4525 17.3518 80.8087C16.9941 81.1685 16.7926 81.6547 16.791 82.162C16.791 82.6654 16.9958 83.1592 17.3518 83.515C17.7079 83.8711 18.2017 84.0761 18.7051 84.0761C19.2085 84.0761 19.7023 83.8713 20.0583 83.515C20.416 83.1554 20.6175 82.6692 20.6191 82.162C20.6191 81.6584 20.4143 81.1646 20.0583 80.8087Z" fill="currentColor"/>
</svg>
