<svg xmlns="http://www.w3.org/2000/svg" version="1.1" xmlns:xlink="http://www.w3.org/1999/xlink" xmlns:svgjs="http://svgjs.com/svgjs" width="512" height="512" x="0" y="0" viewBox="0 0 509.518 509.518" style="enable-background:new 0 0 512 512" xml:space="preserve" class=""><g><path d="M299.759 74.511c-3.774-99.361-146.242-99.336-150 .001v256.524C85.4 395.76 131.985 508.717 223.272 509.501c93.526 1.615 141.532-112.685 76.487-178.464zm-22.34 383.404c-14.402 14.203-33.479 21.873-53.732 21.59-71.675-1.835-100.357-91.508-43.928-135.365V74.511c0-24.813 20.187-45 45-45s45 20.187 45 45V344.14c35.83 27.624 40.884 81.241 7.66 113.775z" fill="#000000" data-original="#000000" class=""></path><path d="M239.759 362.091v-197.58h-30v197.58c-46.977 17.385-35.719 86.462 15.001 87.42 50.726-.961 61.969-70.044 14.999-87.42zm-15 57.42c-8.271 0-15-6.728-15-15 .754-19.872 29.249-19.867 30 0 0 8.272-6.729 15-15 15zM29.759 44.511h90v30h-90zM59.759 104.511h60v30h-60zM29.759 164.511h90v30h-90zM59.759 224.511h60v30h-60zM29.759 284.511h90v30h-90zM461.759 242.511l-36 27v-255h-30v255l-36-27-18 24 69 51.75 69-51.75z" fill="#000000" data-original="#000000" class=""></path></g></svg>