<svg width="36" height="37" viewBox="0 0 36 37" fill="none" xmlns="http://www.w3.org/2000/svg">
<path fill-rule="evenodd" clip-rule="evenodd" d="M11.34 23.2383C10.4913 22.7208 9.48924 22.514 8.505 22.6533H6V31.6533H7.995V28.2183H8.85C9.73574 28.3093 10.6258 28.0921 11.37 27.6033C12.0017 27.0615 12.35 26.2598 12.315 25.4283C12.3618 24.5839 11.9988 23.7686 11.34 23.2383ZM9.735 26.5233C9.35819 26.6892 8.94389 26.7513 8.535 26.7033H7.95V24.1533H8.535C8.95979 24.1082 9.38834 24.1918 9.765 24.3933C10.1158 24.6376 10.3146 25.0465 10.29 25.4733C10.3354 25.9036 10.1161 26.3185 9.735 26.5233ZM16.605 22.6533H14.115V31.6533H16.5C17.7155 31.7723 18.9394 31.5379 20.025 30.9783C21.2195 30.0881 21.8576 28.6352 21.705 27.1533C21.7944 25.8838 21.3421 24.6357 20.46 23.7183C19.3704 22.8595 17.9809 22.4756 16.605 22.6533ZM18.585 29.6133C17.9601 29.9646 17.2445 30.1213 16.53 30.0633H16.14V24.2433H16.5C17.76 24.2433 18.255 24.3633 18.75 24.8133C19.3507 25.4388 19.661 26.2879 19.605 27.1533C19.6822 28.0899 19.3023 29.0061 18.585 29.6133ZM23.895 31.6533H25.92V27.8883H30V26.2983H25.92V24.2433H30V22.6533H23.895V31.6533ZM22.5 3.15332H6V19.6533H9V16.6533V15.0783V6.15332H21.255L27 11.8983V15.0783V16.6533V19.6533H30V10.6533L22.5 3.15332Z" fill="#FA7436"/>
</svg>
