<svg width="50" height="51" viewBox="0 0 50 51" xmlns="http://www.w3.org/2000/svg">
<path d="M48.6391 37.195L41.6615 30.2173C39.1695 27.7253 34.933 28.7222 33.9362 31.9617C33.1886 34.2046 30.6966 35.4506 28.4538 34.9521C23.4697 33.7061 16.7413 27.2269 15.4953 21.9937C14.7477 19.7507 16.2429 17.2587 18.4857 16.5112C21.7253 15.5144 22.7221 11.278 20.2301 8.78596L13.2525 1.80831C11.2589 0.0638969 8.26844 0.0638969 6.52403 1.80831L1.78919 6.54314C-2.94564 11.5272 2.2876 24.7349 14.0001 36.4474C25.7126 48.1598 38.9203 53.6424 43.9043 48.6582L48.6391 43.9234C50.3836 41.9298 50.3836 38.9394 48.6391 37.195Z" />
</svg>
