<svg width="40" height="40" viewBox="0 0 40 40" xmlns="http://www.w3.org/2000/svg">
<path d="M39.5714 30.3348C38.0824 27.5199 32.9116 24.4677 32.684 24.3342C32.0196 23.9561 31.3262 23.7558 30.6774 23.7558C29.7126 23.7558 28.9229 24.1978 28.4446 25.0016C27.6882 25.9063 26.7502 26.9637 26.5225 27.1276C24.7607 28.323 23.3814 28.1873 21.8553 26.6612L13.338 18.1432C11.8216 16.6267 11.6822 15.2304 12.8694 13.4781C13.0355 13.249 14.0929 12.3102 14.9976 11.5531C15.5745 11.2098 15.9705 10.6996 16.144 10.0737C16.3746 9.241 16.2048 8.26143 15.6605 7.30707C15.5322 7.08758 12.4786 1.9161 9.66518 0.42783C9.14018 0.149754 8.54843 0.00292969 7.9552 0.00292969C6.97785 0.00292969 6.05835 0.38408 5.36723 1.07445L3.48521 2.95573C0.508682 5.93152 -0.568771 9.30477 0.28103 12.9813C0.98994 16.0453 3.05586 19.3059 6.42244 22.6717L17.3267 33.576C21.5876 37.8369 25.6498 39.9977 29.4005 39.9977C29.4005 39.9977 29.4005 39.9977 29.4012 39.9977C32.1597 39.9977 34.7314 38.8254 37.0427 36.514L38.924 34.6327C40.0675 33.49 40.327 31.7622 39.5714 30.3348Z"/>
</svg>
