<svg xmlns="http://www.w3.org/2000/svg" version="1.1" xmlns:xlink="http://www.w3.org/1999/xlink" xmlns:svgjs="http://svgjs.com/svgjs" width="512" height="512" x="0" y="0" viewBox="0 0 32 32" style="enable-background:new 0 0 512 512" xml:space="preserve" class=""><g><path d="M22 6.7V5a3 3 0 0 0-3-3h-2a3 3 0 0 0-3 3v1.7a12 12 0 0 0-6.06 4.75 1 1 0 1 0 1.68 1.1 10 10 0 1 1 4.21 14.54 1 1 0 0 0-.83 1.82A12 12 0 1 0 22 6.7zm-6-.51V5a1 1 0 0 1 1-1h2a1 1 0 0 1 1 1v1.18A12 12 0 0 0 18 6a12.1 12.1 0 0 0-2 .19z" fill="#000000" data-original="#000000" class=""></path><path d="M23.78 13.38a1 1 0 0 0-1.4-.16l-2.81 2.24A2.89 2.89 0 0 0 18 15a3 3 0 1 0 3 3 2.93 2.93 0 0 0-.18-1l2.8-2.24a1 1 0 0 0 .16-1.38zM18 19a1 1 0 1 1 1-1 1 1 0 0 1-1 1zM11 15H5a1 1 0 0 0 0 2h6a1 1 0 0 0 0-2zM11 19H3a1 1 0 0 0 0 2h8a1 1 0 0 0 0-2zM11 23H5a1 1 0 0 0 0 2h6a1 1 0 0 0 0-2z" fill="#000000" data-original="#000000" class=""></path></g></svg>