<svg width="100" height="100" viewBox="0 0 100 100" fill="none" xmlns="http://www.w3.org/2000/svg">
<mask id="path-1-outside-1_1071_375" maskUnits="userSpaceOnUse" x="1" y="21.2334" width="97" height="58" fill="currentColor">
<rect fill="white" x="1" y="21.2334" width="97" height="58"/>
<path fill-rule="evenodd" clip-rule="evenodd" d="M5.95076 24.784C7.7337 24.596 9.42867 24.4609 11.0357 24.3784C12.9175 24.2819 14.9682 24.2337 17.1878 24.2337C17.5619 24.2257 17.948 24.2184 18.3458 24.2118C18.6483 24.2067 18.9576 24.202 19.2737 24.1978C21.0618 24.1735 23.0686 24.1613 25.294 24.1613C29.9744 24.1613 33.7863 24.6197 36.7297 25.5365C39.673 26.4533 41.8202 27.9973 43.1712 30.1686C44.5705 32.2917 45.2702 35.3074 45.2702 39.2158C45.2702 41.3389 44.9566 43.269 44.3293 45.006C43.7503 46.7431 42.737 48.1665 41.2894 49.2763C40.1371 50.1214 38.6483 50.7218 36.8232 51.0776C36.3698 51.166 35.8957 51.2393 35.4008 51.2975C35.3854 51.2993 35.3699 51.3011 35.3545 51.3029V51.7371C35.3714 51.7389 35.3883 51.7407 35.4052 51.7427C35.8515 51.793 36.3091 51.8889 36.7781 52.0303C37.2567 52.1747 37.7472 52.3664 38.2496 52.6056C39.3111 53.0882 40.2762 53.8843 41.1447 54.9941C42.0615 56.0556 42.7129 57.5273 43.0989 59.4091L47.2244 74.8255H32.966L29.4195 59.8434C29.0818 58.2993 28.551 57.2861 27.8272 56.8035C27.1035 56.2728 26.0419 56.0074 24.6426 56.0074C22.6557 55.9798 20.8661 55.9601 19.2737 55.9483C18.9566 55.9459 18.6473 55.9439 18.3458 55.9422V74.8255H5.02835V24.8851C5.33839 24.8499 5.64586 24.8162 5.95076 24.784ZM19.2737 34.0179C18.9603 34.0194 18.651 34.0211 18.3458 34.023V46.1641H25.0045C26.7416 46.1641 28.0685 45.9952 28.9853 45.6574C29.9503 45.3197 30.6258 44.7165 31.0118 43.848C31.3979 42.9312 31.5909 41.6767 31.5909 40.0844C31.5909 38.4438 31.3979 37.1893 31.0118 36.3207C30.6258 35.4522 29.9503 34.8491 28.9853 34.5113C28.0685 34.1735 26.7416 34.0046 25.0045 34.0046C22.9619 34.0046 21.0516 34.0091 19.2737 34.0179ZM30.1603 43.4793C30.4759 42.7246 30.6629 41.6127 30.6629 40.0844C30.6629 38.4928 30.4721 37.3909 30.1639 36.6976C29.8903 36.082 29.4226 35.6475 28.6787 35.3871L28.6716 35.3846L28.6645 35.382C27.901 35.1007 26.7036 34.9326 25.0045 34.9326C22.9613 34.9326 21.0511 34.937 19.2737 34.9458V45.2361H25.0045C26.7036 45.2361 27.901 45.068 28.6645 44.7867L28.6716 44.7841L28.6787 44.7816C29.4194 44.5224 29.8862 44.0906 30.1603 43.4793ZM19.2737 56.8762V75.7534H4.10043V24.9384L4 24.0681L4.10043 24.0566V23.9572H4.9759C7.09617 23.7172 9.1004 23.5486 10.9881 23.4517C12.8855 23.3544 14.9489 23.3059 17.1779 23.3058C19.4522 23.2575 22.1579 23.2334 25.294 23.2334C30.0248 23.2334 33.9394 23.6955 37.0056 24.6505C40.1114 25.6179 42.4607 27.2763 43.9527 29.6682C45.4876 32.0031 46.1981 35.2222 46.1981 39.2158C46.1981 41.4262 45.8721 43.4613 45.2059 45.3104C44.5679 47.2177 43.4462 48.792 41.854 50.0127L41.8462 50.0187L41.8382 50.0246C40.8746 50.7312 39.7232 51.2692 38.3996 51.6525C38.48 51.6887 38.5605 51.726 38.6412 51.7644C39.855 52.3178 40.9255 53.213 41.8618 54.4048C42.9005 55.6152 43.5967 57.2346 44.0022 59.1954L48.4333 75.7534H32.2321L28.5148 60.0494L28.5131 60.0417C28.1887 58.5589 27.7259 57.8512 27.3125 57.5756L27.2952 57.5641L27.2785 57.5518C26.7806 57.1867 25.9476 56.9353 24.6426 56.9353H24.6297C22.647 56.9078 20.8617 56.888 19.2737 56.8762ZM96 23.9572V54.5598C96 59.7888 95.318 64.0769 93.8992 67.3726C92.5084 70.6672 90.199 73.0827 86.9971 74.5804C83.8353 76.0593 79.6793 76.7667 74.5893 76.7667C69.1192 76.7667 64.6596 76.0607 61.2651 74.5914L61.2604 74.5894C57.8724 73.1007 55.409 70.6941 53.9127 67.3917L53.9104 67.3868C52.4382 64.087 51.731 59.7935 51.731 54.5598V23.9572H67.1938V54.5598C67.1938 57.3746 67.4101 59.4988 67.8125 60.9744C68.2006 62.3974 68.8504 63.2628 69.6829 63.7361C70.6562 64.261 72.0278 64.5609 73.8655 64.5609C75.7643 64.5609 77.127 64.2568 78.0411 63.7401C78.8769 63.2677 79.5293 62.4014 79.9185 60.9744C80.3209 59.4988 80.5372 57.3746 80.5372 54.5598V23.9572H96ZM69.2333 64.5479C68.1236 63.9207 67.3515 62.8109 66.9173 61.2186C66.483 59.6263 66.2659 57.4067 66.2659 54.5598V24.8851H52.6589V54.5598C52.6589 59.7228 53.3586 63.8724 54.7579 67.0088C56.1572 70.0969 58.4491 72.3406 61.6337 73.7399C64.8666 75.1392 69.1851 75.8388 74.5893 75.8388C79.6074 75.8388 83.6123 75.1392 86.6039 73.7399C89.5955 72.3406 91.7427 70.0969 93.0455 67.0088C94.3966 63.8724 95.0721 59.7228 95.0721 54.5598V24.8851H81.4651V54.5598C81.4651 57.4067 81.248 59.6263 80.8137 61.2186C80.3795 62.8109 79.6074 63.9207 78.4977 64.5479C77.3879 65.1752 75.8438 65.4888 73.8655 65.4888C71.9354 65.4888 70.3914 65.1752 69.2333 64.5479Z"/>
</mask>
<path fill-rule="evenodd" clip-rule="evenodd" d="M5.95076 24.784C7.7337 24.596 9.42867 24.4609 11.0357 24.3784C12.9175 24.2819 14.9682 24.2337 17.1878 24.2337C17.5619 24.2257 17.948 24.2184 18.3458 24.2118C18.6483 24.2067 18.9576 24.202 19.2737 24.1978C21.0618 24.1735 23.0686 24.1613 25.294 24.1613C29.9744 24.1613 33.7863 24.6197 36.7297 25.5365C39.673 26.4533 41.8202 27.9973 43.1712 30.1686C44.5705 32.2917 45.2702 35.3074 45.2702 39.2158C45.2702 41.3389 44.9566 43.269 44.3293 45.006C43.7503 46.7431 42.737 48.1665 41.2894 49.2763C40.1371 50.1214 38.6483 50.7218 36.8232 51.0776C36.3698 51.166 35.8957 51.2393 35.4008 51.2975C35.3854 51.2993 35.3699 51.3011 35.3545 51.3029V51.7371C35.3714 51.7389 35.3883 51.7407 35.4052 51.7427C35.8515 51.793 36.3091 51.8889 36.7781 52.0303C37.2567 52.1747 37.7472 52.3664 38.2496 52.6056C39.3111 53.0882 40.2762 53.8843 41.1447 54.9941C42.0615 56.0556 42.7129 57.5273 43.0989 59.4091L47.2244 74.8255H32.966L29.4195 59.8434C29.0818 58.2993 28.551 57.2861 27.8272 56.8035C27.1035 56.2728 26.0419 56.0074 24.6426 56.0074C22.6557 55.9798 20.8661 55.9601 19.2737 55.9483C18.9566 55.9459 18.6473 55.9439 18.3458 55.9422V74.8255H5.02835V24.8851C5.33839 24.8499 5.64586 24.8162 5.95076 24.784ZM19.2737 34.0179C18.9603 34.0194 18.651 34.0211 18.3458 34.023V46.1641H25.0045C26.7416 46.1641 28.0685 45.9952 28.9853 45.6574C29.9503 45.3197 30.6258 44.7165 31.0118 43.848C31.3979 42.9312 31.5909 41.6767 31.5909 40.0844C31.5909 38.4438 31.3979 37.1893 31.0118 36.3207C30.6258 35.4522 29.9503 34.8491 28.9853 34.5113C28.0685 34.1735 26.7416 34.0046 25.0045 34.0046C22.9619 34.0046 21.0516 34.0091 19.2737 34.0179ZM30.1603 43.4793C30.4759 42.7246 30.6629 41.6127 30.6629 40.0844C30.6629 38.4928 30.4721 37.3909 30.1639 36.6976C29.8903 36.082 29.4226 35.6475 28.6787 35.3871L28.6716 35.3846L28.6645 35.382C27.901 35.1007 26.7036 34.9326 25.0045 34.9326C22.9613 34.9326 21.0511 34.937 19.2737 34.9458V45.2361H25.0045C26.7036 45.2361 27.901 45.068 28.6645 44.7867L28.6716 44.7841L28.6787 44.7816C29.4194 44.5224 29.8862 44.0906 30.1603 43.4793ZM19.2737 56.8762V75.7534H4.10043V24.9384L4 24.0681L4.10043 24.0566V23.9572H4.9759C7.09617 23.7172 9.1004 23.5486 10.9881 23.4517C12.8855 23.3544 14.9489 23.3059 17.1779 23.3058C19.4522 23.2575 22.1579 23.2334 25.294 23.2334C30.0248 23.2334 33.9394 23.6955 37.0056 24.6505C40.1114 25.6179 42.4607 27.2763 43.9527 29.6682C45.4876 32.0031 46.1981 35.2222 46.1981 39.2158C46.1981 41.4262 45.8721 43.4613 45.2059 45.3104C44.5679 47.2177 43.4462 48.792 41.854 50.0127L41.8462 50.0187L41.8382 50.0246C40.8746 50.7312 39.7232 51.2692 38.3996 51.6525C38.48 51.6887 38.5605 51.726 38.6412 51.7644C39.855 52.3178 40.9255 53.213 41.8618 54.4048C42.9005 55.6152 43.5967 57.2346 44.0022 59.1954L48.4333 75.7534H32.2321L28.5148 60.0494L28.5131 60.0417C28.1887 58.5589 27.7259 57.8512 27.3125 57.5756L27.2952 57.5641L27.2785 57.5518C26.7806 57.1867 25.9476 56.9353 24.6426 56.9353H24.6297C22.647 56.9078 20.8617 56.888 19.2737 56.8762ZM96 23.9572V54.5598C96 59.7888 95.318 64.0769 93.8992 67.3726C92.5084 70.6672 90.199 73.0827 86.9971 74.5804C83.8353 76.0593 79.6793 76.7667 74.5893 76.7667C69.1192 76.7667 64.6596 76.0607 61.2651 74.5914L61.2604 74.5894C57.8724 73.1007 55.409 70.6941 53.9127 67.3917L53.9104 67.3868C52.4382 64.087 51.731 59.7935 51.731 54.5598V23.9572H67.1938V54.5598C67.1938 57.3746 67.4101 59.4988 67.8125 60.9744C68.2006 62.3974 68.8504 63.2628 69.6829 63.7361C70.6562 64.261 72.0278 64.5609 73.8655 64.5609C75.7643 64.5609 77.127 64.2568 78.0411 63.7401C78.8769 63.2677 79.5293 62.4014 79.9185 60.9744C80.3209 59.4988 80.5372 57.3746 80.5372 54.5598V23.9572H96ZM69.2333 64.5479C68.1236 63.9207 67.3515 62.8109 66.9173 61.2186C66.483 59.6263 66.2659 57.4067 66.2659 54.5598V24.8851H52.6589V54.5598C52.6589 59.7228 53.3586 63.8724 54.7579 67.0088C56.1572 70.0969 58.4491 72.3406 61.6337 73.7399C64.8666 75.1392 69.1851 75.8388 74.5893 75.8388C79.6074 75.8388 83.6123 75.1392 86.6039 73.7399C89.5955 72.3406 91.7427 70.0969 93.0455 67.0088C94.3966 63.8724 95.0721 59.7228 95.0721 54.5598V24.8851H81.4651V54.5598C81.4651 57.4067 81.248 59.6263 80.8137 61.2186C80.3795 62.8109 79.6074 63.9207 78.4977 64.5479C77.3879 65.1752 75.8438 65.4888 73.8655 65.4888C71.9354 65.4888 70.3914 65.1752 69.2333 64.5479Z" fill="currentColor"/>
<path fill-rule="evenodd" clip-rule="evenodd" d="M5.95076 24.784C7.7337 24.596 9.42867 24.4609 11.0357 24.3784C12.9175 24.2819 14.9682 24.2337 17.1878 24.2337C17.5619 24.2257 17.948 24.2184 18.3458 24.2118C18.6483 24.2067 18.9576 24.202 19.2737 24.1978C21.0618 24.1735 23.0686 24.1613 25.294 24.1613C29.9744 24.1613 33.7863 24.6197 36.7297 25.5365C39.673 26.4533 41.8202 27.9973 43.1712 30.1686C44.5705 32.2917 45.2702 35.3074 45.2702 39.2158C45.2702 41.3389 44.9566 43.269 44.3293 45.006C43.7503 46.7431 42.737 48.1665 41.2894 49.2763C40.1371 50.1214 38.6483 50.7218 36.8232 51.0776C36.3698 51.166 35.8957 51.2393 35.4008 51.2975C35.3854 51.2993 35.3699 51.3011 35.3545 51.3029V51.7371C35.3714 51.7389 35.3883 51.7407 35.4052 51.7427C35.8515 51.793 36.3091 51.8889 36.7781 52.0303C37.2567 52.1747 37.7472 52.3664 38.2496 52.6056C39.3111 53.0882 40.2762 53.8843 41.1447 54.9941C42.0615 56.0556 42.7129 57.5273 43.0989 59.4091L47.2244 74.8255H32.966L29.4195 59.8434C29.0818 58.2993 28.551 57.2861 27.8272 56.8035C27.1035 56.2728 26.0419 56.0074 24.6426 56.0074C22.6557 55.9798 20.8661 55.9601 19.2737 55.9483C18.9566 55.9459 18.6473 55.9439 18.3458 55.9422V74.8255H5.02835V24.8851C5.33839 24.8499 5.64586 24.8162 5.95076 24.784ZM19.2737 34.0179C18.9603 34.0194 18.651 34.0211 18.3458 34.023V46.1641H25.0045C26.7416 46.1641 28.0685 45.9952 28.9853 45.6574C29.9503 45.3197 30.6258 44.7165 31.0118 43.848C31.3979 42.9312 31.5909 41.6767 31.5909 40.0844C31.5909 38.4438 31.3979 37.1893 31.0118 36.3207C30.6258 35.4522 29.9503 34.8491 28.9853 34.5113C28.0685 34.1735 26.7416 34.0046 25.0045 34.0046C22.9619 34.0046 21.0516 34.0091 19.2737 34.0179ZM30.1603 43.4793C30.4759 42.7246 30.6629 41.6127 30.6629 40.0844C30.6629 38.4928 30.4721 37.3909 30.1639 36.6976C29.8903 36.082 29.4226 35.6475 28.6787 35.3871L28.6716 35.3846L28.6645 35.382C27.901 35.1007 26.7036 34.9326 25.0045 34.9326C22.9613 34.9326 21.0511 34.937 19.2737 34.9458V45.2361H25.0045C26.7036 45.2361 27.901 45.068 28.6645 44.7867L28.6716 44.7841L28.6787 44.7816C29.4194 44.5224 29.8862 44.0906 30.1603 43.4793ZM19.2737 56.8762V75.7534H4.10043V24.9384L4 24.0681L4.10043 24.0566V23.9572H4.9759C7.09617 23.7172 9.1004 23.5486 10.9881 23.4517C12.8855 23.3544 14.9489 23.3059 17.1779 23.3058C19.4522 23.2575 22.1579 23.2334 25.294 23.2334C30.0248 23.2334 33.9394 23.6955 37.0056 24.6505C40.1114 25.6179 42.4607 27.2763 43.9527 29.6682C45.4876 32.0031 46.1981 35.2222 46.1981 39.2158C46.1981 41.4262 45.8721 43.4613 45.2059 45.3104C44.5679 47.2177 43.4462 48.792 41.854 50.0127L41.8462 50.0187L41.8382 50.0246C40.8746 50.7312 39.7232 51.2692 38.3996 51.6525C38.48 51.6887 38.5605 51.726 38.6412 51.7644C39.855 52.3178 40.9255 53.213 41.8618 54.4048C42.9005 55.6152 43.5967 57.2346 44.0022 59.1954L48.4333 75.7534H32.2321L28.5148 60.0494L28.5131 60.0417C28.1887 58.5589 27.7259 57.8512 27.3125 57.5756L27.2952 57.5641L27.2785 57.5518C26.7806 57.1867 25.9476 56.9353 24.6426 56.9353H24.6297C22.647 56.9078 20.8617 56.888 19.2737 56.8762ZM96 23.9572V54.5598C96 59.7888 95.318 64.0769 93.8992 67.3726C92.5084 70.6672 90.199 73.0827 86.9971 74.5804C83.8353 76.0593 79.6793 76.7667 74.5893 76.7667C69.1192 76.7667 64.6596 76.0607 61.2651 74.5914L61.2604 74.5894C57.8724 73.1007 55.409 70.6941 53.9127 67.3917L53.9104 67.3868C52.4382 64.087 51.731 59.7935 51.731 54.5598V23.9572H67.1938V54.5598C67.1938 57.3746 67.4101 59.4988 67.8125 60.9744C68.2006 62.3974 68.8504 63.2628 69.6829 63.7361C70.6562 64.261 72.0278 64.5609 73.8655 64.5609C75.7643 64.5609 77.127 64.2568 78.0411 63.7401C78.8769 63.2677 79.5293 62.4014 79.9185 60.9744C80.3209 59.4988 80.5372 57.3746 80.5372 54.5598V23.9572H96ZM69.2333 64.5479C68.1236 63.9207 67.3515 62.8109 66.9173 61.2186C66.483 59.6263 66.2659 57.4067 66.2659 54.5598V24.8851H52.6589V54.5598C52.6589 59.7228 53.3586 63.8724 54.7579 67.0088C56.1572 70.0969 58.4491 72.3406 61.6337 73.7399C64.8666 75.1392 69.1851 75.8388 74.5893 75.8388C79.6074 75.8388 83.6123 75.1392 86.6039 73.7399C89.5955 72.3406 91.7427 70.0969 93.0455 67.0088C94.3966 63.8724 95.0721 59.7228 95.0721 54.5598V24.8851H81.4651V54.5598C81.4651 57.4067 81.248 59.6263 80.8137 61.2186C80.3795 62.8109 79.6074 63.9207 78.4977 64.5479C77.3879 65.1752 75.8438 65.4888 73.8655 65.4888C71.9354 65.4888 70.3914 65.1752 69.2333 64.5479Z" stroke="currentColor" stroke-width="4" mask="url(#path-1-outside-1_1071_375)"/>
</svg>
