<svg xmlns="http://www.w3.org/2000/svg" version="1.1" xmlns:xlink="http://www.w3.org/1999/xlink" xmlns:svgjs="http://svgjs.com/svgjs" width="512" height="512" x="0" y="0" viewBox="0 0 32 32" style="enable-background:new 0 0 512 512" xml:space="preserve" class=""><g><path d="M16 .936 4 5.3v10.556a13.1 13.1 0 0 0 5.381 10.566L16 31.236l6.619-4.814A13.1 13.1 0 0 0 28 15.856V5.3zm10 14.92a11.1 11.1 0 0 1-4.557 8.949L16 28.764l-5.443-3.959A11.1 11.1 0 0 1 6 15.856V6.7l10-3.636L26 6.7z" fill="#000000" data-original="#000000"></path><path d="m11.707 13.543-1.414 1.414 4.457 4.457 6.957-6.957-1.414-1.414-5.543 5.543z" fill="#000000" data-original="#000000"></path></g></svg>