<svg width="29" height="30" viewBox="0 0 29 30" fill="none" xmlns="http://www.w3.org/2000/svg">
<g clip-path="url(#clip0_968_4240)">
<path d="M28.5611 22.8339L17.3034 3.33512C16.7183 2.32159 15.6702 1.71655 14.5 1.71655C13.3297 1.71655 12.2816 2.32164 11.6965 3.33512L0.438866 22.8339C-0.146289 23.8474 -0.146289 25.0575 0.438866 26.0711C1.02402 27.0845 2.07204 27.6896 3.24235 27.6896H25.7576C26.9279 27.6896 27.976 27.0845 28.5611 26.0711C29.1462 25.0575 29.1462 23.8474 28.5611 22.8339ZM27.0884 25.2208C26.8106 25.7019 26.3132 25.9891 25.7576 25.9891H3.24235C2.68682 25.9891 2.18929 25.7019 1.91152 25.2208C1.63376 24.7397 1.63376 24.1652 1.91152 23.6841L13.1691 4.18529C13.447 3.70419 13.9444 3.41696 14.5 3.41696C15.0555 3.41696 15.553 3.70419 15.8308 4.18529L27.0884 23.6841C27.3662 24.1652 27.3662 24.7397 27.0884 25.2208Z" fill="currentColor"/>
<path d="M14.5008 20.3209C13.8758 20.3209 13.3672 20.8294 13.3672 21.4545C13.3672 22.0796 13.8758 22.5882 14.5008 22.5882C15.1259 22.5882 15.6345 22.0796 15.6345 21.4545C15.6345 20.8294 15.1259 20.3209 14.5008 20.3209ZM13.6506 9.83447H15.351V18.6203H13.6506V9.83447Z" fill="currentColor"/>
</g>
<defs>
<clipPath id="clip0_968_4240">
<rect width="29" height="29" fill="white" transform="translate(0 0.203125)"/>
</clipPath>
</defs>
</svg>
